<svg width="145" height="214" viewBox="0 0 145 214" fill="none" xmlns="http://www.w3.org/2000/svg">
<path d="M132.033 105.12C132.444 105.792 132.844 106.467 133.228 107.15C134.683 109.719 135.957 112.341 137.058 115.004C138.589 118.726 139.779 122.531 140.63 126.37C140.994 127.998 141.294 129.636 141.531 131.277C142.543 138.146 142.504 145.074 141.474 151.844C138.481 171.514 127.101 189.777 108.717 200.946C89.4281 212.667 66.7049 213.975 47.1333 206.474C42.3953 204.659 37.8433 202.326 33.572 199.502C30.5836 197.527 27.7337 195.31 25.0524 192.856C21.6375 189.745 18.4981 186.255 15.6974 182.4C15.192 181.711 14.6989 181.005 14.2181 180.286C13.6513 179.443 13.0985 178.585 12.5633 177.71C9.35723 172.471 6.92855 166.981 5.24743 161.368C5.0193 160.616 4.80697 159.866 4.61043 159.11C4.22963 157.674 3.89621 156.232 3.61544 154.785C3.6014 154.71 3.58561 154.632 3.57333 154.556C3.18376 152.551 2.88895 150.532 2.68188 148.518C2.50639 146.802 2.39584 145.087 2.35021 143.371C2.16947 136.766 2.93282 130.185 4.59113 123.839C9.00802 106.956 19.7423 91.6912 35.8744 81.8893C54.3351 70.6727 75.9423 68.9903 94.9189 75.4433C98.5339 76.671 102.054 78.1977 105.436 80.0076C108.519 81.6515 111.483 83.5297 114.304 85.6422C115.354 86.4222 116.386 87.2423 117.395 88.087C118.344 88.8862 119.278 89.7134 120.188 90.5703C120.295 90.6682 120.395 90.7644 120.499 90.8641C121.508 91.8224 122.492 92.8087 123.447 93.837C126.627 97.2331 129.51 101.002 132.03 105.124L132.033 105.12Z" fill="#EBAB3F"/>
<path d="M123.675 93.854C120.207 94.2002 116.778 94.9854 113.461 96.1169C107.837 98.0283 102.499 100.826 97.3838 103.995C92.2685 107.173 87.3532 110.73 82.5046 114.402C77.6543 118.082 72.8777 121.887 68.0501 125.67C63.2209 129.452 58.3565 133.219 53.3412 136.841C48.2979 140.475 43.0755 143.874 37.6812 146.982C32.2851 150.095 26.7311 152.94 21.0209 155.479C18.1693 156.754 15.2721 157.94 12.3345 159.043C10.8622 159.594 9.37937 160.12 7.88075 160.619C7.13144 160.869 6.37686 161.11 5.61527 161.346L5.47488 161.39C5.24676 160.638 5.03442 159.888 4.83788 159.132C4.45709 157.697 4.12367 156.254 3.8429 154.808C3.82886 154.733 3.81307 154.654 3.80078 154.579C4.45533 154.395 5.11339 154.208 5.76618 154.005C7.18584 153.573 8.60549 153.113 10.0181 152.63C12.8434 151.655 15.6494 150.595 18.422 149.448C23.9742 147.159 29.4089 144.56 34.705 141.694C39.9993 138.833 45.1462 135.683 50.1299 132.294C55.1382 128.88 60.0587 125.288 64.9669 121.653C69.8787 118.015 74.7817 114.33 79.7882 110.742C84.7999 107.16 89.9082 103.661 95.285 100.524C100.662 97.3953 106.323 94.6095 112.368 92.7383C115.092 91.8989 117.887 91.2623 120.728 90.8828C121.737 91.8411 122.722 92.8275 123.676 93.8557L123.675 93.854Z" fill="#CC903A"/>
<path d="M141.7 151.867C138.707 171.537 127.327 189.8 108.943 200.969C89.6541 212.69 66.9309 213.998 47.3594 206.497L70.0142 197.825C84.2212 192.385 97.2332 184.239 108.313 173.841C114.239 168.279 120.72 163.36 127.641 159.154C132.149 156.416 136.843 153.98 141.699 151.869L141.7 151.867Z" fill="#CC903A"/>
<path d="M95.146 75.465L86.2841 78.1896C76.429 81.2203 67.0197 85.4558 58.2561 90.7808C52.8021 94.0948 47.5973 97.8319 42.6943 101.964C32.1794 110.832 20.2571 117.892 7.4153 122.859L4.81641 123.862C9.2333 106.98 19.9676 91.7147 36.0997 81.9128C54.5604 70.6961 76.1675 69.0138 95.1442 75.4668L95.146 75.465Z" fill="#CC903A"/>
<path d="M113.298 83.6502C112.447 83.9545 111.602 84.2623 110.76 84.5805C107.952 85.6473 105.206 86.805 102.556 88.0816C101.895 88.4051 101.237 88.7304 100.593 89.0749L98.5518 90.1487C97.1708 90.8709 95.8055 91.6036 94.4438 92.3434C88.9898 95.3093 83.6569 98.3277 78.4626 101.647C73.2437 104.929 68.1021 108.457 62.9271 111.986C57.7662 115.529 52.5912 119.077 47.4391 122.657C44.8244 124.454 42.1641 126.205 39.4792 127.896C36.7873 129.584 34.034 131.172 31.2684 132.723C28.5028 134.274 25.6898 135.75 22.8364 137.137C19.9761 138.513 17.1069 139.858 14.2115 141.159C11.3125 142.462 8.39774 143.733 5.44789 144.969C4.19319 145.487 2.93849 146.012 1.67151 146.528C1.49602 144.812 1.38547 143.096 1.33984 141.381C2.21726 141.182 3.0894 140.958 3.95453 140.715C6.92545 139.887 9.85249 138.87 12.7199 137.705C15.5837 136.535 18.4002 135.232 21.1395 133.789C23.8876 132.361 26.5935 130.846 29.2503 129.26C34.5481 126.055 39.6494 122.538 44.4997 118.706C49.4325 114.843 54.3162 110.915 59.2367 107.017C61.697 105.064 64.1678 103.114 66.6649 101.183C69.1761 99.2685 71.6977 97.3466 74.2914 95.4929C79.4874 91.803 84.8923 88.3334 90.3831 85.1769C91.7501 84.3794 93.1241 83.5907 94.4999 82.8143L95.53 82.2249C95.8757 82.0291 96.2056 81.8385 96.5847 81.6391C97.3182 81.2351 98.0605 80.8591 98.8063 80.4832C100.651 79.5755 102.528 78.7536 104.425 78.0156C107.508 79.6595 110.472 81.5377 113.294 83.6502H113.298Z" fill="#CC903A"/>
<path d="M140.854 126.391C141.217 128.019 141.517 129.657 141.754 131.298C138.793 132.16 135.875 133.188 133.006 134.351C129.83 135.65 126.708 137.093 123.67 138.693C120.626 140.274 117.625 141.953 114.68 143.716C108.807 147.266 103.149 151.167 97.7744 155.415C92.3081 159.696 86.8945 164.051 81.4387 168.372C78.7135 170.537 75.9725 172.698 73.2033 174.841C70.4184 176.964 67.6248 179.092 64.7504 181.15C58.9893 185.239 52.9965 189.088 46.9055 192.585C45.3929 193.472 43.8697 194.341 42.3465 195.203L41.2024 195.857C40.8198 196.076 40.4566 196.288 40.0337 196.508C39.2194 196.956 38.3964 197.374 37.5699 197.786C36.3257 198.398 35.0675 198.977 33.797 199.523C30.8085 197.548 27.9587 195.331 25.2773 192.877C28.0587 191.798 30.7805 190.632 33.418 189.362C34.1515 189.004 34.878 188.642 35.5957 188.262L37.8559 187.07C39.3844 186.271 40.9005 185.456 42.4097 184.641C48.4551 181.351 54.3688 178.004 60.1246 174.326C65.9103 170.685 71.6135 166.777 77.3482 162.865C83.0672 158.935 88.809 155.002 94.5174 151.033C97.4199 149.043 100.365 147.1 103.342 145.225C106.327 143.356 109.379 141.595 112.446 139.874C115.51 138.156 118.627 136.516 121.793 134.979C124.962 133.456 128.142 131.964 131.355 130.521C134.496 129.113 137.655 127.732 140.852 126.391H140.854Z" fill="#CC903A"/>
<path d="M133.454 107.172C134.909 109.741 136.183 112.362 137.283 115.026C132.068 116.549 126.889 118.172 121.805 119.976C120.347 120.51 118.877 121.01 117.438 121.578L115.269 122.411L113.119 123.276C111.678 123.846 110.282 124.481 108.86 125.086C107.463 125.73 106.056 126.354 104.684 127.04C99.1524 129.719 93.9072 132.842 88.9236 136.453C83.9363 140.044 79.165 144.117 74.2269 148.123C69.2958 152.133 64.2069 156.036 58.9283 159.63C53.6411 163.241 48.159 166.553 42.5734 169.6C36.986 172.657 31.2934 175.49 25.5358 178.158C22.6561 179.494 19.7572 180.789 16.8389 182.034C16.5336 182.165 16.2265 182.294 15.9246 182.424C15.4192 181.735 14.9261 181.028 14.4453 180.309C14.8858 180.101 15.3245 179.891 15.7632 179.68C18.6042 178.319 21.4207 176.918 24.2162 175.476C29.8035 172.59 35.3067 169.556 40.6729 166.319C46.0444 163.082 51.2475 159.639 56.2347 155.903C61.2377 152.164 66.0091 148.158 70.6944 143.991C75.3816 139.832 80.0336 135.481 85.1244 131.461C87.6618 129.451 90.3011 127.533 93.0211 125.74C95.7375 123.941 98.5488 122.288 101.4 120.732C102.824 119.941 104.269 119.221 105.712 118.478C107.17 117.776 108.618 117.04 110.092 116.386L112.293 115.377L114.512 114.414C115.986 113.76 117.483 113.174 118.966 112.551C123.76 110.612 128.593 108.844 133.452 107.174L133.454 107.172Z" fill="#CC903A"/>
<g opacity="0.3">
<path d="M140.358 157.641C140.172 158.407 139.974 159.166 139.762 159.921C138.967 162.761 138.007 165.514 136.896 168.174C135.338 171.885 133.479 175.412 131.36 178.726C130.459 180.132 129.51 181.505 128.513 182.828C124.358 188.4 119.413 193.272 113.881 197.335C97.8073 209.132 76.8038 214.028 55.8793 208.973C33.9229 203.667 16.9275 188.58 8.40954 169.484C6.34586 164.86 4.78407 160.007 3.76803 154.995C3.05557 151.492 2.61511 147.919 2.45893 144.292C2.25361 139.686 2.50806 135.005 3.26439 130.307C3.396 129.464 3.55043 128.618 3.71714 127.77C3.91368 126.775 4.13478 125.778 4.37695 124.781C5.36141 120.733 6.68279 116.852 8.30425 113.164C8.14982 115.642 8.12876 118.103 8.23756 120.544C8.39374 124.171 8.8342 127.745 9.54666 131.246C10.5627 136.257 12.1245 141.113 14.1882 145.735C22.7061 164.832 39.7016 179.918 61.6579 185.224C82.5807 190.28 103.586 185.383 119.66 173.586C125.191 169.524 130.136 164.652 134.292 159.08C135.289 157.754 136.238 156.383 137.138 154.977C139.049 151.989 140.748 148.83 142.204 145.516C141.952 149.539 141.343 153.591 140.358 157.639V157.641Z" fill="#293856"/>
</g>
<g opacity="0.6">
<path d="M141.477 151.847C140.461 158.52 138.476 165.031 135.579 171.16C136.214 168.756 136.716 166.319 137.092 163.861C138.125 157.091 138.162 150.159 137.151 143.293C136.916 141.653 136.613 140.014 136.249 138.386C135.396 134.546 134.21 130.742 132.675 127.017C131.574 124.352 130.304 121.731 128.846 119.164C128.458 118.482 128.06 117.807 127.647 117.139C125.131 113.015 122.246 109.248 119.064 105.848C118.115 104.824 117.129 103.836 116.118 102.877C116.014 102.781 115.913 102.685 115.809 102.589C114.897 101.734 113.965 100.901 113.014 100.105C112.003 99.2556 110.969 98.4354 109.923 97.6589C107.098 95.5499 104.141 93.6682 101.056 92.0226C97.6748 90.2144 94.1546 88.6894 90.5379 87.46C71.563 81.0035 49.9558 82.6859 31.4951 93.9043C19.3605 101.277 10.281 111.742 4.64453 123.658C9.09126 106.852 19.8097 91.6553 35.8804 81.8902C54.3411 70.6717 75.9483 68.9894 94.9232 75.4459C98.5399 76.6753 102.055 78.2002 105.436 80.0085C108.521 81.6541 111.485 83.534 114.311 85.6448C115.356 86.423 116.392 87.2414 117.401 88.0913C118.35 88.887 119.282 89.7195 120.196 90.5746C120.3 90.6708 120.401 90.767 120.505 90.8632C121.516 91.8215 122.495 92.8095 123.451 93.8343C126.633 97.234 129.513 101.001 132.034 105.124C132.445 105.794 132.845 106.469 133.233 107.15C134.684 109.717 135.962 112.345 137.062 115.003C138.592 118.728 139.784 122.532 140.636 126.372C141 128 141.296 129.639 141.531 131.279C142.547 138.145 142.505 145.077 141.477 151.847Z" fill="white"/>
</g>
<path d="M72.6553 213.71C66.9222 213.71 61.1524 213.028 55.4404 211.648C36.6217 207.101 20.7054 195.523 10.6257 179.046C0.546023 162.57 -2.49333 143.168 2.06921 124.414C6.63175 105.66 18.2487 89.8003 34.7826 79.7535C51.3166 69.7068 70.7846 66.6797 89.6051 71.2265C108.424 75.7733 124.34 87.3537 134.42 103.829C155.228 137.841 144.392 182.384 110.263 203.121C98.7477 210.118 85.8094 213.71 72.657 213.712L72.6553 213.71ZM72.399 74.2134C60.1644 74.2134 48.1316 77.5553 37.4201 84.0625C22.0409 93.4063 11.2364 108.159 6.99149 125.603C2.74833 143.047 5.57359 161.093 14.9514 176.419C24.3274 191.744 39.1311 202.514 56.6355 206.743C74.1398 210.973 92.2478 208.156 107.625 198.812C139.372 179.523 149.45 138.093 130.096 106.456C120.72 91.1293 105.916 80.3604 88.4118 76.1318C83.1 74.8482 77.7302 74.2134 72.399 74.2134Z" fill="#003158"/>
<g opacity="0.3">
<path d="M69.8971 125.659C88.9373 125.659 104.372 122.879 104.372 119.45C104.372 116.022 88.9373 113.242 69.8971 113.242C50.857 113.242 35.4219 116.022 35.4219 119.45C35.4219 122.879 50.857 125.659 69.8971 125.659Z" fill="#002A47"/>
</g>
<path d="M57.8679 52.6704L54.6215 62.9165C49.6448 64.3172 37.1873 62.0893 28.5957 56.1889C24.8913 53.6462 21.9045 50.4179 20.5463 46.5059C16.5716 35.0584 26.8479 34.3606 30.8033 36.8474C33.8812 38.7815 36.1502 41.354 38.9246 43.895C42.9063 47.5429 47.9268 51.1279 57.8679 52.6721V52.6704Z" fill="white"/>
<g opacity="0.35">
<path d="M55.7287 59.423L54.6214 62.9171C49.6448 64.3178 37.1873 62.0899 28.5956 56.1895C24.8912 53.6468 21.9045 50.4185 20.5463 46.5065C19.0722 42.2605 19.5583 39.4956 20.9551 37.8203C20.8727 39.2211 21.1289 40.9209 21.8378 42.9635C21.8589 43.0229 21.8817 43.0841 21.9045 43.1453C23.0276 46.0676 26.8127 46.8493 29.0835 44.686C29.5222 44.2681 29.8188 44.0582 29.8188 44.2541C29.8416 48.1626 28.5956 51.237 29.8872 52.6465C36.8345 60.2362 50.6362 60.7206 55.7305 59.423H55.7287Z" fill="#002A47"/>
</g>
<path d="M57.8681 52.666L56.373 57.386L54.6234 62.9121C53.7636 63.1552 52.6791 63.2881 51.4314 63.3143C45.4562 63.435 35.7047 61.0671 28.5977 56.1845C34.4219 53.3026 37.4788 47.619 38.9265 43.8906C40.7832 45.5922 42.8679 47.2798 45.5721 48.7557C48.0218 50.0901 50.9822 51.2477 54.741 52.0819C55.7255 52.3005 56.7678 52.4964 57.8699 52.6678L57.8681 52.666Z" fill="#4A83FF"/>
<g opacity="0.35">
<path d="M57.8699 52.671L54.6234 62.9171C49.6468 64.3179 37.1893 62.09 28.5977 56.1896C29.5137 55.7366 30.3613 55.2138 31.1439 54.6402C35.5906 57.1776 40.7059 58.8547 45.2036 59.6801C50.4084 60.635 55.5096 57.5746 57.103 52.5469C57.3557 52.5906 57.6102 52.6326 57.8699 52.6728V52.671Z" fill="#002A47"/>
</g>
<path d="M50.9397 64.0163C46.1578 64.0163 39.6351 62.5245 34.0477 60.0011C31.9051 59.034 29.9397 57.9392 28.2077 56.7466C24.0014 53.8593 21.2077 50.4894 19.9039 46.7278C17.8595 40.8362 19.5353 37.9349 21.3025 36.5377C24.0295 34.3832 28.606 34.6595 31.1698 36.2719C33.4827 37.7251 35.3147 39.4949 37.2538 41.3696C37.9435 42.0358 38.6577 42.7249 39.3982 43.4034C40.8126 44.701 42.0743 45.7188 43.3694 46.6071C47.3721 49.3615 52.0119 51.0735 57.973 51.9986C58.345 52.0563 58.6012 52.4044 58.5433 52.7751C58.4854 53.1458 58.1397 53.4012 57.7642 53.3434C51.5925 52.3851 46.772 50.6014 42.5937 47.7264C41.246 46.8013 39.9369 45.745 38.4734 44.4037C37.7206 43.7147 36.9994 43.0187 36.3027 42.3454C34.4145 40.5231 32.6316 38.8006 30.4398 37.4226C28.3165 36.0882 24.3892 35.8347 22.15 37.6044C20.1127 39.2151 19.781 42.216 21.1937 46.2836C22.401 49.7654 25.0209 52.908 28.9833 55.6274C30.6486 56.7746 32.5421 57.8291 34.611 58.7629C42.3656 62.264 50.7817 63.294 54.4388 62.264C54.802 62.1625 55.1793 62.3724 55.2811 62.7344C55.3829 63.0964 55.1723 63.4724 54.8091 63.5738C53.7404 63.8746 52.4243 64.018 50.9397 64.018V64.0163Z" fill="#002A47"/>
<path d="M43.3306 47.9803C41.9232 53.1707 38.2889 56.9568 35.0724 59.4156C34.5424 59.8196 33.8299 59.893 33.2298 59.6045C32.2769 59.148 31.3398 58.6566 30.4308 58.1337C29.3148 57.4902 29.2534 55.9005 30.3133 55.1696C31.5346 54.3284 32.7525 53.3071 33.8703 52.0672C36.0656 49.6364 37.4519 47.3158 38.3188 45.4551C38.8084 44.4041 40.1578 44.0963 41.0528 44.836C41.567 45.2627 42.1022 45.6842 42.662 46.0986C43.2481 46.5323 43.5201 47.2756 43.3288 47.9786L43.3306 47.9803Z" fill="white"/>
<g opacity="0.35">
<path d="M42.2363 50.9219C40.485 54.6293 37.6439 57.4448 35.0696 59.4139C34.5414 59.8197 33.8272 59.8914 33.2253 59.6028C32.2741 59.1446 31.3353 58.655 30.4263 58.1303C29.312 57.4885 29.2488 55.8972 30.3087 55.1679C30.7194 54.8864 31.1282 54.5821 31.5336 54.2568C31.6757 54.5716 31.9162 54.8531 32.2513 55.0472C33.1603 55.5701 34.0992 56.0598 35.0503 56.518C35.6522 56.8065 36.3646 56.7331 36.8928 56.3291C38.6986 54.9493 40.6341 53.1516 42.2345 50.9219H42.2363Z" fill="#002A47"/>
</g>
<path d="M33.9989 60.4609C33.6374 60.4609 33.2742 60.3805 32.9337 60.2178C31.951 59.7457 30.9929 59.2438 30.0892 58.7226C29.3627 58.3047 28.9082 57.5527 28.8731 56.715C28.8397 55.8739 29.2328 55.0887 29.9242 54.6113C31.2087 53.7264 32.3652 52.7191 33.3637 51.6139C35.1922 49.587 36.6522 47.4203 37.7016 45.1696C38.0262 44.4736 38.6422 43.9787 39.3897 43.8108C40.1355 43.6429 40.9006 43.8265 41.4902 44.3144C42.0272 44.7586 42.5431 45.1644 43.0696 45.5526C43.8926 46.1612 44.2541 47.1824 43.9891 48.1565C42.4905 53.6809 38.5386 57.6209 35.487 59.9538C35.0483 60.2878 34.5253 60.4609 33.9971 60.4609H33.9989ZM39.9284 45.1119C39.8495 45.1119 39.7688 45.1206 39.6898 45.1381C39.3581 45.2133 39.0844 45.4337 38.9387 45.7432C37.8332 48.1163 36.2977 50.3967 34.3779 52.5232C33.3093 53.7071 32.0721 54.7861 30.6998 55.7305C30.3892 55.9438 30.2208 56.2831 30.2366 56.6608C30.2523 57.0368 30.4471 57.3586 30.77 57.5457C31.6439 58.0494 32.5705 58.5355 33.5233 58.9937C33.8954 59.1721 34.3288 59.1266 34.6552 58.8783C37.5401 56.6731 41.2709 52.9622 42.6695 47.805C42.7853 47.3766 42.6221 46.9219 42.2536 46.6491C41.7061 46.2451 41.1709 45.8236 40.6146 45.3637C40.418 45.2011 40.1759 45.1136 39.9267 45.1136L39.9284 45.1119Z" fill="#002A47"/>
<path d="M98.1017 85.3967C94.1744 90.4979 83.9508 88.7299 83.9508 88.7299L83.8613 54.2527L83.8438 47.2891C83.8438 47.2891 89.6768 47.443 94.1095 49.2687C96.2451 50.1466 98.0543 51.4127 98.7317 53.2367C101.088 59.5707 101.331 81.2031 98.1034 85.395L98.1017 85.3967Z" fill="white"/>
<g opacity="0.35">
<path d="M100.494 67.6264C100.63 75.1864 99.9127 83.0454 98.1017 85.401C94.1744 90.504 83.949 88.736 83.949 88.736L83.8438 47.2969C83.8438 47.2969 83.9525 47.2986 84.1508 47.3109L84.2333 79.6196C84.2333 79.6196 94.4587 81.3876 98.386 76.2847C99.4494 74.9014 100.136 71.6242 100.494 67.6264Z" fill="#002A47"/>
</g>
<path d="M87.9722 89.7151C85.7119 89.7151 84.0027 89.43 83.8308 89.4003C83.4587 89.3356 83.2096 88.9841 83.2745 88.6133C83.3394 88.2426 83.6939 87.9943 84.0642 88.059C84.1624 88.0765 93.9315 89.6941 97.5588 84.9811C100.547 81.0971 100.482 59.9124 98.0887 53.4734C96.1882 48.3617 83.9483 47.9717 83.8238 47.97C83.4465 47.9595 83.1499 47.6464 83.1604 47.2722C83.171 46.8962 83.4886 46.6059 83.8606 46.6094C84.4028 46.6234 97.1481 47.0309 99.368 53.0012C100.509 56.0686 101.24 62.95 101.189 70.1252C101.163 73.8816 100.861 82.9263 98.6415 85.8101C96.1461 89.0523 91.4186 89.7151 87.9722 89.7151Z" fill="#002A47"/>
<path d="M99.7404 70.8087L92.772 71.3298C92.1491 71.377 91.6367 71.8334 91.5261 72.4455C91.119 74.6857 90.4504 79.9093 92.6369 81.6336C94.4514 83.0659 97.3995 82.898 99.1262 81.4412C101.058 79.8114 101.246 74.6892 101.214 72.1535C101.204 71.3648 100.53 70.7492 99.7404 70.8087Z" fill="white"/>
<g opacity="0.35">
<path d="M91.5267 72.4427C91.1196 74.6829 90.4492 79.9065 92.6375 81.629C94.452 83.0613 97.3983 82.8934 99.1268 81.4366C100.313 80.4346 100.843 78.1105 101.066 75.8808C100.752 76.9947 100.259 77.8989 99.6463 78.4934C96.1331 81.8948 93.5114 77.8849 93.5114 77.8849C93.5114 77.8849 93.0569 78.8589 92.6937 78.9132C91.1775 79.144 91.4916 74.4135 91.7092 71.9688C91.6197 72.1104 91.5565 72.2695 91.5249 72.4427H91.5267Z" fill="#002A47"/>
</g>
<path d="M95.7074 83.3077C94.4369 83.3077 93.1804 82.93 92.2135 82.1675C89.82 80.2788 90.3359 75.1899 90.8553 72.3254C91.022 71.409 91.7889 70.7217 92.7224 70.6518L99.6908 70.1306C100.252 70.0887 100.816 70.2828 101.232 70.6623C101.647 71.0417 101.89 71.5821 101.897 72.1452C101.941 75.69 101.572 80.2701 99.5662 81.9611C98.5063 82.8565 97.0972 83.3077 95.7074 83.3077ZM99.7926 71.4877L92.8242 72.0088C92.5119 72.0316 92.2539 72.2624 92.1995 72.5684C91.4186 76.8704 91.7415 80.0602 93.0611 81.1025C94.5773 82.2986 97.1534 82.2165 98.6853 80.9241C99.8979 79.9028 100.588 76.6274 100.533 72.1645C100.531 71.9738 100.452 71.7972 100.31 71.6678C100.168 71.5384 99.9857 71.4754 99.7944 71.4894L99.7926 71.4877Z" fill="#002A47"/>
<path d="M94.1354 76.4582C94.2126 77.3291 94.2091 78.1598 94.2652 78.9852C94.3179 79.8071 94.4109 80.6186 94.6127 81.381C94.8128 82.14 95.1304 82.85 95.6059 83.3851C96.078 83.9238 96.7097 84.263 97.4187 84.4327H97.4204C97.7872 84.5201 98.0136 84.8873 97.9258 85.2528C97.8381 85.6183 97.4696 85.8439 97.1028 85.7582C97.0888 85.7547 97.073 85.7495 97.0589 85.746C96.6027 85.6043 96.1534 85.4067 95.7446 85.1357C95.3357 84.8681 94.9707 84.5288 94.6741 84.1476C94.0775 83.3799 93.7669 82.4828 93.5931 81.6136C93.4212 80.7375 93.3808 79.8683 93.3791 79.0149C93.3756 78.1633 93.4317 77.3151 93.4107 76.5107V76.5019C93.4054 76.3026 93.5633 76.1382 93.7634 76.133C93.9546 76.1277 94.1161 76.2729 94.1336 76.4617L94.1354 76.4582Z" fill="#002A47"/>
<path d="M95.6253 52.9888C94.983 53.0378 94.3302 53.113 93.6862 53.2021C93.0404 53.2896 92.3981 53.3945 91.7576 53.5134C91.1189 53.6306 90.4836 53.7653 89.8554 53.9174C89.2254 54.0643 88.606 54.2427 87.99 54.4245L87.9777 54.428C87.6162 54.5365 87.2354 54.3301 87.1266 53.9699C87.0178 53.6096 87.2249 53.2301 87.5864 53.1217C87.6075 53.1147 87.6303 53.1095 87.6513 53.106C88.3129 52.9783 88.9727 52.8576 89.636 52.7702C90.2994 52.6775 90.9627 52.6041 91.626 52.5481C92.2893 52.4904 92.9527 52.4502 93.6177 52.4257C94.2828 52.4012 94.9426 52.3907 95.6147 52.4047C95.7779 52.4082 95.906 52.5429 95.9025 52.7037C95.899 52.8559 95.7814 52.9783 95.6323 52.9905H95.6235L95.6253 52.9888Z" fill="#002A47"/>
<g opacity="0.35">
<path d="M94.1038 49.2765C91.0487 51.5901 87.5601 53.2829 83.8574 54.2605L83.8398 47.2969C83.8398 47.2969 89.6729 47.4508 94.1056 49.2765H94.1038Z" fill="#002A47"/>
</g>
<path d="M70.2506 113.785C67.2709 120.667 54.5116 119.533 51.2915 116.686C47.9925 113.766 53.9571 110.121 53.9571 110.121C52.7112 108.011 52.0303 105.004 51.6881 101.834C51.3003 98.2385 51.3477 94.4349 51.4951 91.4987C51.6478 88.4715 51.9075 86.3695 51.9075 86.3695L70.7157 76.2266C70.7034 80.0407 70.0629 83.3039 69.489 85.9166C68.2677 91.4742 68.3467 95.7482 68.8415 99.2388C69.0819 100.933 69.4189 102.444 69.754 103.828C70.6981 107.733 71.6194 110.627 70.2524 113.787L70.2506 113.785Z" fill="white"/>
<path d="M68.8394 99.2388C69.0798 100.933 69.4168 102.444 69.7519 103.828C61.3095 105.304 54.8465 103.236 51.6878 101.834C51.3 98.2384 51.3473 94.4349 51.4947 91.4987C51.6474 88.4715 51.9071 86.3695 51.9071 86.3695L70.7153 76.2266C70.703 80.0407 70.0625 83.3039 69.4887 85.9166C68.2673 91.4742 68.3463 95.7482 68.8412 99.2388H68.8394Z" fill="#4A83FF"/>
<g opacity="0.35">
<path d="M69.2422 87.1172C69.1668 87.5124 69.0983 87.8989 69.0352 88.2801C69.0966 87.8989 69.1668 87.5107 69.2422 87.1172Z" fill="#002A47"/>
</g>
<path d="M59.7683 119.594C55.9585 119.594 52.3699 118.55 50.838 117.193C49.943 116.401 49.5359 115.481 49.6254 114.46C49.8061 112.414 51.9891 110.648 53.0561 109.899C49.2779 102.538 51.1468 86.9603 51.2311 86.2836C51.2767 85.9111 51.6171 85.6453 51.9926 85.6907C52.3664 85.7362 52.6332 86.0755 52.5875 86.4497C52.5665 86.6158 50.5905 103.079 54.5459 109.773C54.7354 110.093 54.6319 110.504 54.3143 110.698C53.4369 111.237 51.1275 112.982 50.9871 114.579C50.9362 115.156 51.1854 115.677 51.7452 116.174C53.5667 117.786 58.9839 118.842 63.5043 117.842C65.6469 117.368 68.4459 116.231 69.6251 113.512C70.7815 110.84 70.1761 108.388 69.3373 104.994C68.2195 100.471 66.8297 94.8421 68.8214 85.7677C69.4426 82.9364 70.0199 79.8201 70.0322 76.2176C70.0322 75.8434 70.3393 75.5391 70.7149 75.5391H70.7166C71.0939 75.5391 71.3992 75.8451 71.3975 76.2211C71.3852 79.9495 70.7938 83.1515 70.1551 86.0562C68.23 94.8211 69.5795 100.279 70.6622 104.667C71.5308 108.182 72.217 110.957 70.8763 114.049C69.7637 116.62 67.3158 118.389 63.7973 119.169C62.4795 119.461 61.109 119.591 59.7665 119.591L59.7683 119.594Z" fill="#002A47"/>
<path d="M65.0617 104.773C60.9151 104.773 55.2575 104.314 51.425 102.166C51.1776 102.028 51.0916 101.717 51.2302 101.472C51.3689 101.225 51.6812 101.138 51.9269 101.278C58.2039 104.794 70.1858 103.516 70.3069 103.502C70.5894 103.472 70.8404 103.673 70.872 103.953C70.9036 104.233 70.7 104.485 70.4192 104.516C70.2086 104.539 68.0204 104.773 65.0617 104.773Z" fill="#002A47"/>
<g opacity="0.35">
<path d="M51.2142 69.7812C50.7703 73.7527 50.5141 77.1961 50.4614 80.0676C50.3877 77.3919 50.6492 73.9398 51.2142 69.7812Z" fill="#002A47"/>
</g>
<g opacity="0.35">
<path d="M90.7782 74.726C90.7607 73.1836 90.6659 71.5275 90.4922 69.7734C90.708 71.5572 90.8028 73.215 90.7782 74.726Z" fill="#002A47"/>
</g>
<path d="M66.3208 96.4502C73.0821 96.9224 78.2185 94.8344 79.9768 94.0544C84.4902 92.0538 87.9612 88.4216 89.6582 83.6282C92.2781 76.2256 90.3952 59.8605 83.2759 41.2797L60.1385 39.8125C49.6113 59.8605 47.2739 81.792 51.6118 89.0039C52.0488 89.7314 52.5296 90.4327 53.1333 91.0535C55.6128 93.605 59.5366 95.1089 62.7111 95.8626" fill="white"/>
<path d="M90.7127 77.7235C90.5723 80.0546 90.216 82.0412 89.658 83.6221C87.9611 88.4138 84.4901 92.046 79.9766 94.0483C78.2201 94.8265 73.0819 96.9181 66.3224 96.4442L62.7127 95.8566C59.5382 95.1029 55.6162 93.6007 53.1349 91.0474C52.533 90.4266 52.0521 89.7254 51.6152 88.9961C48.9829 84.6189 48.8092 74.8205 51.4327 63.3118C51.9837 60.8932 52.3785 58.4939 53.1805 55.9582C53.5753 54.706 54.2825 53.349 54.7423 52.0794C56.2128 48.003 58.008 43.8671 60.1401 39.8047L83.2775 41.2737C84.6848 44.9496 85.8904 48.5398 86.8924 51.9902C86.8942 51.9937 86.8942 51.9954 86.8942 51.9972C89.8809 62.2625 91.104 71.2967 90.7127 77.7235Z" fill="#4A83FF"/>
<path d="M52.8498 58.6835C52.8796 58.9318 52.8831 59.1714 52.8761 59.4075C52.8726 59.6453 52.8515 59.8779 52.8287 60.1088C52.7866 60.5722 52.6918 61.0216 52.6023 61.4728C52.4268 62.3752 52.1882 63.2601 51.9671 64.1502C51.7425 65.0403 51.5635 65.9392 51.3985 66.8416C51.2283 67.7422 51.0809 68.6463 50.9423 69.5522C50.4088 73.1739 50.1052 76.8411 50.2842 80.4698C50.379 82.2798 50.5913 84.088 51.0546 85.8053C51.288 86.6605 51.581 87.4981 51.9811 88.2554C52.1794 88.6226 52.4163 89.0143 52.6637 89.3746C52.9094 89.7366 53.1726 90.0793 53.4569 90.3941C54.6327 91.655 56.1541 92.6448 57.765 93.4178C58.1686 93.6119 58.581 93.7937 58.9987 93.9616C59.4163 94.133 59.8497 94.2607 60.2797 94.3936C60.7096 94.53 61.1343 94.6786 61.5519 94.864C61.759 94.9602 61.9678 95.0599 62.1696 95.1875C62.3714 95.3152 62.5732 95.4463 62.7645 95.6335L62.7733 95.6405C62.8751 95.7401 62.8768 95.9028 62.7785 96.0042C62.7452 96.0392 62.7031 96.0619 62.661 96.0724C62.1468 96.2106 61.659 96.2001 61.1852 96.1319C60.7131 96.0584 60.2516 95.9308 59.8059 95.7629C59.3602 95.595 58.925 95.3991 58.4845 95.219C58.044 95.0389 57.6053 94.8465 57.1754 94.6384C55.4539 93.8077 53.8044 92.755 52.4479 91.3017C52.111 90.931 51.8091 90.5358 51.5354 90.1336C51.2599 89.7296 51.016 89.3309 50.7756 88.8832C50.3123 88.0035 49.9929 87.0819 49.7402 86.1551C49.2401 84.2979 49.0242 82.4127 48.9242 80.5345C48.74 76.7746 49.0523 73.0357 49.5946 69.3458C49.7367 68.4242 49.8859 67.5043 50.0596 66.588C50.1438 66.1298 50.2316 65.6716 50.3263 65.2152L50.5931 63.8424C50.765 62.926 50.9581 62.0132 51.2301 61.1213C51.4933 60.2277 51.8267 59.3498 52.4163 58.5523C52.4953 58.4439 52.648 58.4212 52.7568 58.4999C52.8129 58.5401 52.8462 58.6013 52.8533 58.6643V58.6748L52.8498 58.6835Z" fill="#002A47"/>
<path d="M68.3198 97.2006C67.6529 97.2006 66.9703 97.1778 66.2719 97.1289C65.8964 97.1026 65.6121 96.7774 65.6384 96.4031C65.6647 96.0289 65.9876 95.7456 66.3667 95.7718C72.1172 96.174 76.7903 94.7225 79.6963 93.4337C84.1062 91.4786 87.414 87.9163 89.0127 83.4027C91.308 76.92 90.2638 61.6059 82.7918 41.9321L60.0932 40.4929C59.7176 40.4684 59.4316 40.1449 59.4544 39.7706C59.479 39.3964 59.8036 39.1113 60.1791 39.1341L83.3165 40.6013C83.5832 40.6188 83.8149 40.7884 83.9114 41.0385C90.6095 58.5228 93.1769 75.7291 90.2989 83.8556C88.574 88.726 85.0064 92.5698 80.2508 94.6771C77.5554 95.8715 73.4105 97.2006 68.318 97.2006H68.3198Z" fill="#002A47"/>
<path d="M68.318 97.1982C67.6512 97.1982 66.9703 97.1755 66.2719 97.1265C65.8964 97.1003 65.6121 96.775 65.6384 96.4007C65.6647 96.0265 65.9894 95.7432 66.3667 95.7694C72.119 96.1717 76.7886 94.7202 79.6963 93.4313C84.1062 91.4762 87.414 87.9139 89.0127 83.4003C91.5431 76.2513 89.6374 61.4479 84.1588 45.6844C84.036 45.3294 84.2237 44.9412 84.58 44.8187C84.9362 44.6963 85.3258 44.8834 85.4486 45.2384C91.0237 61.2748 92.9277 76.4314 90.3007 83.8532C88.5757 88.7236 85.0082 92.5657 80.2526 94.6747C77.5572 95.8691 73.4123 97.1982 68.3198 97.1982H68.318Z" fill="#002A47"/>
<path d="M63.1974 110.423C62.4429 110.179 61.669 110.002 60.8986 109.897C60.13 109.783 59.3579 109.752 58.6033 109.787C58.2243 109.787 57.8505 109.855 57.4802 109.888C57.1117 109.96 56.7432 110.002 56.3834 110.1C56.2045 110.149 56.0202 110.171 55.843 110.229C55.6675 110.287 55.4885 110.338 55.3095 110.388C55.1288 110.434 54.9568 110.502 54.7813 110.565C54.6058 110.628 54.4286 110.686 54.2478 110.74L54.1829 110.759C53.8214 110.866 53.4424 110.661 53.3336 110.303C53.2388 109.988 53.3845 109.659 53.6652 109.509C54.418 109.106 55.234 108.793 56.0851 108.654C56.5063 108.557 56.938 108.542 57.3644 108.51C57.5785 108.503 57.7926 108.514 58.0067 108.517C58.2207 108.517 58.4313 108.538 58.6437 108.561C59.4895 108.641 60.316 108.828 61.0987 109.112C61.8813 109.399 62.6271 109.764 63.2939 110.255C63.3378 110.287 63.3466 110.348 63.315 110.392C63.2887 110.427 63.2448 110.439 63.2062 110.427H63.1992L63.1974 110.423Z" fill="#002A47"/>
<g opacity="0.35">
<path d="M90.7803 74.7293C90.7435 77.3262 81.8009 63.8799 81.8009 65.6636C81.8009 69.5774 83.0977 75.4393 82.7713 80.7871C82.6871 82.1616 82.5572 83.4662 82.4274 84.6309C82.1378 87.2366 81.4306 89.1585 79.9759 89.6866C78.4229 90.2515 74.2323 91.654 68.6169 91.7064C67.8746 91.7134 67.1095 91.6977 66.3216 91.6522C63.0208 91.4634 55.3399 89.9909 52.1409 86.2432C51.9496 86.0177 51.7706 85.7868 51.6127 85.5455C50.9072 84.4665 50.5317 82.6215 50.4615 80.0701C50.3773 84.3651 50.7458 87.3852 51.6127 89.0011C51.6249 89.0238 51.639 89.0448 51.6513 89.0675C51.5969 89.774 51.5425 90.5942 51.4968 91.4966C51.5337 91.5788 51.5741 91.6575 51.6144 91.7309C53.5746 95.3876 58.3214 97.4634 62.182 98.4567C64.0017 98.9254 65.4424 100.331 65.9145 102.145C67.0358 106.443 69.0925 108.645 68.0413 111.83C65.8934 118.335 54.8064 116.401 50.4562 113.846C50.1316 114.773 50.2527 115.766 51.2915 116.684C54.5116 119.533 67.271 120.664 70.2507 113.783C72.1037 109.504 69.7575 105.714 68.8415 99.2367C68.7871 98.8502 68.738 98.4532 68.6941 98.044C68.6836 97.9496 68.6748 97.8534 68.6643 97.7572C68.6538 97.654 68.645 97.5526 68.6345 97.4459C68.6239 97.327 68.6152 97.2081 68.6029 97.0857C68.5906 96.9038 68.5765 96.7184 68.5643 96.5313C68.5643 96.5243 68.5643 96.5173 68.5643 96.5103C74.206 96.4579 78.4176 94.7388 79.9759 94.0481C84.4893 92.0475 87.9603 88.4152 89.6573 83.6218C90.4434 81.4026 90.8242 78.3755 90.7786 74.7258L90.7803 74.7293Z" fill="#002A47"/>
</g>
<path d="M88.5775 116.349C85.596 123.233 72.8367 122.099 69.6184 119.252C66.3193 116.332 72.2822 112.687 72.2822 112.687C70.1799 110.239 69.1849 106.871 68.7743 103.543C68.0267 97.4958 69.2148 91.5831 69.2148 91.5831L89.0408 78.7891C89.0285 82.6049 88.3897 85.8681 87.8141 88.4843C86.3629 95.0947 86.749 99.8898 87.4877 103.714C88.5196 109.066 90.2411 112.511 88.5775 116.351V116.349Z" fill="white"/>
<path d="M87.8159 88.4825C86.3646 95.0929 86.7507 99.8881 87.4895 103.713C76.0796 107.695 68.9621 103.648 68.7743 103.543C68.0267 97.4958 69.2148 91.5831 69.2148 91.5831L76.757 85.7125L89.0408 78.7891C89.0285 82.6049 88.3897 85.8681 87.8141 88.4843L87.8159 88.4825Z" fill="#4A83FF"/>
<g opacity="0.35">
<path d="M87.8146 88.4825C86.3634 95.0929 86.7494 99.8881 87.4882 103.713C76.0784 107.695 68.9608 103.648 68.773 103.543C68.7221 103.136 68.6818 102.73 68.6484 102.326C68.68 102.335 68.7116 102.343 68.7432 102.352C75.9836 104.332 83.303 99.2743 83.9066 91.8157C84.047 90.0827 84.3208 88.1975 84.7735 86.1374C85.1245 84.5408 85.4983 82.7063 85.7404 80.6498L89.0413 78.7891C89.029 82.6049 88.3902 85.8681 87.8146 88.4843V88.4825Z" fill="#002A47"/>
</g>
<g opacity="0.35">
<path d="M87.8168 88.5206C84.3352 104.379 91.4317 109.803 88.5784 116.391C85.5987 123.272 72.8376 122.141 69.6192 119.292C68.7541 118.526 68.526 117.713 68.6611 116.926C72.9902 119.203 83.8456 119.595 86.5621 113.318C87.543 111.052 81.6135 106.647 81.5731 101.722C81.5398 97.5951 82.6997 93.377 83.914 90.1138C84.8915 87.4871 85.4916 79.3098 90.7684 76.4453C90.6929 79.2469 90.342 81.6147 89.7172 83.4527C89.4119 83.5489 89.0697 83.6485 88.6924 83.7465C88.4538 85.5162 88.1256 87.1146 87.815 88.5224L87.8168 88.5206Z" fill="#002A47"/>
</g>
<path d="M69.4428 91.6682C69.4534 93.5044 69.3621 95.3074 69.3007 97.1069C69.2568 98.9064 69.2445 100.702 69.3779 102.486C69.4411 103.378 69.5569 104.265 69.7166 105.139C69.8745 106.013 70.0851 106.877 70.3606 107.713C70.6379 108.547 70.952 109.371 71.3661 110.137C71.775 110.905 72.2523 111.629 72.8051 112.286C73.049 112.577 73.0104 113.01 72.7191 113.253C72.6963 113.273 72.6717 113.29 72.6471 113.306L72.6419 113.309C72.3822 113.474 72.0944 113.677 71.8311 113.876C71.5644 114.079 71.3064 114.292 71.0608 114.514C70.5729 114.96 70.1184 115.441 69.7885 115.962C69.4586 116.478 69.2603 117.031 69.3182 117.513C69.3744 117.993 69.6745 118.456 70.1412 118.839C70.594 119.213 71.1819 119.517 71.7943 119.762C72.4085 120.009 73.0578 120.201 73.7158 120.357C75.039 120.661 76.406 120.815 77.773 120.84C78.4556 120.848 79.1382 120.822 79.8173 120.763C80.4929 120.693 81.1686 120.602 81.8266 120.451C83.141 120.159 84.4132 119.689 85.5012 118.968C86.04 118.605 86.5366 118.188 86.9542 117.707C87.3648 117.221 87.7018 116.679 87.9615 116.099C88.4721 114.901 88.6669 113.607 88.5634 112.279C88.4704 110.952 88.1545 109.604 87.8228 108.243C87.4877 106.881 87.1385 105.501 86.863 104.097C86.5857 102.694 86.3751 101.271 86.2611 99.8385C86.1452 98.4062 86.1224 96.967 86.1874 95.533C86.2505 94.099 86.3997 92.672 86.6103 91.2572C86.8296 89.8477 87.1402 88.4312 87.4245 87.0776C87.707 85.7101 87.8667 84.3303 88.0615 82.961C88.258 81.5882 88.43 80.2259 88.8143 78.8304C88.8494 78.7044 88.9775 78.631 89.1039 78.6642C89.1881 78.687 89.2495 78.7534 89.2688 78.8321C89.6391 80.2539 89.6338 81.7054 89.4987 83.1306C89.3689 84.5594 89.0425 85.9584 88.7634 87.3504C88.4669 88.7529 88.1738 90.089 87.9597 91.4635C87.7562 92.8346 87.6123 94.2126 87.5509 95.5924C87.4192 98.3555 87.6561 101.117 88.2019 103.834C88.4669 105.195 88.8108 106.549 89.1477 107.921C89.4794 109.296 89.8181 110.702 89.9234 112.188C89.9795 112.928 89.9567 113.691 89.8409 114.443C89.7251 115.194 89.5127 115.936 89.2144 116.634C88.9003 117.34 88.4862 118.005 87.9861 118.596C87.4772 119.18 86.884 119.677 86.254 120.102C84.9818 120.941 83.5551 121.459 82.1179 121.78C81.3967 121.945 80.6684 122.043 79.9402 122.118C79.2102 122.183 78.4802 122.209 77.7502 122.2C76.2901 122.174 74.8354 122.009 73.4035 121.681C72.6875 121.511 71.9785 121.301 71.2819 121.023C70.587 120.74 69.8973 120.401 69.2586 119.878C69.1761 119.817 69.1024 119.743 69.0287 119.671C68.955 119.598 68.8795 119.53 68.8093 119.451C68.6725 119.288 68.5338 119.127 68.4198 118.935C68.1846 118.564 68.0126 118.124 67.9618 117.666C67.9074 117.206 67.9758 116.751 68.1056 116.345C68.2355 115.938 68.4233 115.57 68.6374 115.235C69.0655 114.561 69.5937 114.012 70.1448 113.509C70.422 113.259 70.7081 113.023 71.0046 112.797C71.3047 112.571 71.5925 112.365 71.9294 112.152L71.768 113.175C71.1415 112.431 70.608 111.62 70.157 110.772C69.7008 109.925 69.3586 109.034 69.0603 108.135C68.7602 107.234 68.5479 106.316 68.3671 105.394C68.2724 104.934 68.2039 104.471 68.1302 104.008C68.0723 103.544 68.0074 103.079 67.9653 102.616C67.7687 100.757 67.7459 98.8889 67.888 97.0369C67.9565 96.1118 68.0653 95.1884 68.2443 94.2773C68.4268 93.3662 68.6444 92.4638 68.9953 91.5842C69.0427 91.4653 69.1778 91.4076 69.2954 91.4548C69.3849 91.4898 69.4411 91.5772 69.4411 91.6682V91.6734L69.4428 91.6682Z" fill="#002A47"/>
<path d="M78.0258 105.886C74.9865 105.886 71.6225 105.431 68.5533 104.004C68.2971 103.885 68.1865 103.581 68.3059 103.326C68.4252 103.07 68.7305 102.96 68.9867 103.079C76.8922 106.757 87.2474 103.557 87.351 103.523C87.6212 103.438 87.909 103.586 87.9932 103.856C88.0792 104.125 87.93 104.412 87.6598 104.496C87.3843 104.583 83.1692 105.884 78.0258 105.884V105.886Z" fill="#002A47"/>
<path d="M82.5691 114.028C82.4392 114.028 82.3076 113.992 82.1918 113.915C82.018 113.801 77.9644 111.195 72.5385 113.355C72.1875 113.495 71.7909 113.325 71.6505 112.975C71.5102 112.626 71.6821 112.23 72.0313 112.091C78.1504 109.656 82.7568 112.654 82.9499 112.781C83.264 112.991 83.3482 113.413 83.1376 113.726C83.006 113.922 82.7902 114.028 82.5691 114.028Z" fill="#002A47"/>
<path d="M93.9834 90.6927C93.9834 90.6927 93.9834 90.635 93.9834 90.6035L93.9711 90.4898C93.9606 90.4129 93.9465 90.3342 93.9325 90.2555C93.8992 90.0981 93.8571 89.9424 93.8079 89.7885C93.7097 89.479 93.571 89.1835 93.4078 88.9037C93.0762 88.3493 92.6076 87.8771 92.0285 87.5816C91.8846 87.5046 91.7372 87.4469 91.5635 87.3805C91.3985 87.3123 91.2283 87.2563 91.0599 87.1986C90.7212 87.0814 90.3772 86.9853 90.0298 86.9031C89.6823 86.8174 89.3314 86.7544 88.9786 86.7054C88.6312 86.6617 88.2609 86.632 87.9398 86.6372H87.9257H87.9064C87.5871 86.6355 87.215 86.667 86.8693 86.7142C86.5184 86.7667 86.1674 86.8331 85.8217 86.9205C85.476 87.0062 85.1321 87.1059 84.7951 87.2248C84.6267 87.2825 84.4582 87.342 84.2933 87.4102C84.1213 87.4784 83.9756 87.5379 83.8335 87.6148C83.2614 87.9121 82.8104 88.3878 82.484 88.9351C82.3261 89.2132 82.191 89.507 82.098 89.8148C82.0506 89.9687 82.0102 90.1226 81.9804 90.2782C81.9664 90.3552 81.9541 90.4338 81.9453 90.509L81.9348 90.621C81.9348 90.6524 81.9295 90.7032 81.9348 90.7066C82.7332 91.0984 83.0614 92.062 82.6683 92.8577C82.2752 93.6534 81.3083 93.9804 80.5099 93.5886C79.7904 93.2354 79.4517 92.417 79.6798 91.6772L80.0957 90.3254C80.122 90.2397 80.1413 90.2013 80.1642 90.1435L80.2291 89.9914C80.273 89.8917 80.3203 89.7955 80.3677 89.7011C80.4625 89.5122 80.5625 89.3286 80.6713 89.1502C80.8889 88.7952 81.1276 88.4525 81.4066 88.1429C81.9506 87.5151 82.6472 86.9975 83.4229 86.7037C83.6141 86.6267 83.8177 86.5673 83.9949 86.5218C84.1774 86.4711 84.3599 86.4221 84.5442 86.3767C84.911 86.2875 85.2812 86.2053 85.6532 86.1388C86.0253 86.0724 86.3991 86.0112 86.7781 85.9745C87.1606 85.936 87.5239 85.9045 87.9398 85.9167H87.9064C88.3206 85.908 88.6838 85.943 89.0664 85.9832C89.4437 86.0234 89.8157 86.0881 90.1877 86.1563C90.5597 86.2245 90.9265 86.3102 91.2933 86.4029C91.4758 86.4484 91.6583 86.4991 91.839 86.5516C92.0145 86.6005 92.2163 86.6582 92.4058 86.7369C93.1744 87.0307 93.8535 87.5536 94.3923 88.1744C94.666 88.484 94.8994 88.8232 95.1135 89.1765C95.2206 89.3531 95.3171 89.535 95.4101 89.7238C95.4575 89.8183 95.5031 89.9127 95.5452 90.0106L95.6084 90.161C95.6312 90.217 95.6487 90.2555 95.6733 90.3377L95.9032 91.0879C96.0839 91.6772 95.7505 92.2998 95.1591 92.4799C94.5678 92.66 93.943 92.3278 93.7623 91.7384C93.6482 91.3624 93.7465 90.969 93.9816 90.6892L93.9834 90.6927Z" fill="#002A47"/>
<path d="M95.7295 90.5156H80.1168C75.5046 90.5156 71.7656 94.2417 71.7656 98.8381V105.665C71.7656 110.262 75.5046 113.988 80.1168 113.988H95.7295C100.342 113.988 104.081 110.262 104.081 105.665V98.8381C104.081 94.2417 100.342 90.5156 95.7295 90.5156Z" fill="#A34F31"/>
<path d="M101.195 114.669H74.6513C72.6842 114.669 71.082 113.074 71.082 111.112V93.393C71.082 91.4308 72.6824 89.8359 74.6513 89.8359H101.195C103.162 89.8359 104.764 91.4326 104.764 93.393V111.112C104.764 113.072 103.164 114.669 101.195 114.669ZM74.6513 91.1965C73.437 91.1965 72.449 92.1828 72.449 93.393V111.112C72.449 112.322 73.437 113.306 74.6513 113.306H101.195C102.409 113.306 103.397 112.322 103.397 111.112V93.393C103.397 92.1811 102.409 91.1965 101.195 91.1965H74.6513Z" fill="#002A47"/>
<g opacity="0.35">
<path d="M101.619 104.589V104.124C103.011 103.919 104.079 102.725 104.079 101.28V96.0252C104.079 94.4373 102.788 93.1484 101.194 93.1484H78.7625V110.388H74.4474C72.8541 110.388 71.5625 109.101 71.5625 107.513V111.117C71.5625 112.703 72.8541 113.992 74.4474 113.992H100.991C102.584 113.992 103.876 112.703 103.876 111.117V107.513C103.876 109.08 102.619 110.353 101.054 110.386V105.483C101.389 105.323 101.619 104.982 101.619 104.591V104.589ZM98.2306 110.388H81.5861V105.483C81.9212 105.323 82.1511 104.982 82.1511 104.591V104.157H98.2306V110.39V110.388Z" fill="#002A47"/>
</g>
<g opacity="0.3">
<path d="M78.7621 93.1484V104.157H74.6506C73.0572 104.157 71.7656 102.87 71.7656 101.282V96.0269C71.7656 94.439 73.0572 93.1502 74.6506 93.1502H78.7621V93.1484Z" fill="#6B184E"/>
</g>
<path d="M104.079 93.3924V98.6475C104.079 100.235 102.787 101.522 101.194 101.522H74.6506C73.0572 101.522 71.7656 100.235 71.7656 98.6475V93.3924C71.7656 91.8045 73.0572 90.5156 74.6506 90.5156H101.194C102.787 90.5156 104.079 91.8045 104.079 93.3924Z" fill="#A34F31"/>
<g opacity="0.3">
<path d="M104.081 93.3924V95.8057C104.081 94.2178 102.789 92.9289 101.196 92.9289H96.2244C96.2261 92.9412 96.2261 92.9534 96.2261 92.9657C96.2261 94.286 94.5467 95.358 92.4778 95.358C90.4089 95.358 88.7313 94.286 88.7313 92.9657C88.7313 92.9534 88.7313 92.9412 88.733 92.9289H74.6506C73.0572 92.9289 71.7656 94.2178 71.7656 95.8057V93.3924C71.7656 91.8045 73.0572 90.5156 74.6506 90.5156H101.194C102.787 90.5156 104.079 91.8045 104.079 93.3924H104.081Z" fill="white"/>
</g>
<path d="M101.195 102.203H74.6513C72.6842 102.203 71.082 100.608 71.082 98.648V93.3929C71.082 91.4308 72.6824 89.8359 74.6513 89.8359H101.195C103.162 89.8359 104.764 91.4326 104.764 93.3929V98.648C104.764 100.608 103.164 102.203 101.195 102.203ZM74.6513 91.1947C73.437 91.1947 72.449 92.1811 72.449 93.3912V98.6463C72.449 99.8564 73.437 100.841 74.6513 100.841H101.195C102.409 100.841 103.397 99.8564 103.397 98.6463V93.3912C103.397 92.1793 102.409 91.1947 101.195 91.1947H74.6513Z" fill="#002A47"/>
<path d="M78.8254 90.4375H78.0059C77.4525 90.4375 77.0039 90.8846 77.0039 91.436V112.986C77.0039 113.538 77.4525 113.985 78.0059 113.985H78.8254C79.3788 113.985 79.8274 113.538 79.8274 112.986V91.436C79.8274 90.8846 79.3788 90.4375 78.8254 90.4375Z" fill="#BF943D"/>
<g opacity="0.35">
<path d="M81.5852 91.4308V93.1446H78.7617V91.4308C78.7617 90.8852 79.211 90.4375 79.7585 90.4375H80.592C81.1395 90.4375 81.587 90.8852 81.587 91.4308H81.5852Z" fill="#002A47"/>
</g>
<g opacity="0.3">
<path d="M78.7612 99.1719V105.55C78.3225 105.446 77.9961 105.051 77.9961 104.586V100.137C77.9961 99.6703 78.3242 99.2768 78.7612 99.1736V99.1719Z" fill="#6B184E"/>
</g>
<path d="M78.7131 90.4375H78.1182C77.5028 90.4375 77.0039 90.9347 77.0039 91.548V112.874C77.0039 113.488 77.5028 113.985 78.1182 113.985H78.7131C79.3285 113.985 79.8274 113.488 79.8274 112.874V91.548C79.8274 90.9347 79.3285 90.4375 78.7131 90.4375Z" fill="#EC1C24"/>
<path d="M98.1779 90.4375H97.5831C96.9677 90.4375 96.4688 90.9347 96.4688 91.548V112.874C96.4688 113.488 96.9677 113.985 97.5831 113.985H98.1779C98.7934 113.985 99.2923 113.488 99.2923 112.874V91.548C99.2923 90.9347 98.7934 90.4375 98.1779 90.4375Z" fill="#EC1C24"/>
<path d="M78.7139 114.666H78.119C77.1275 114.666 76.3203 113.861 76.3203 112.873V91.5486C76.3203 90.5605 77.1275 89.7578 78.119 89.7578H78.7139C79.7054 89.7578 80.5126 90.5622 80.5126 91.5486V112.873C80.5126 113.861 79.7054 114.666 78.7139 114.666ZM78.119 91.1184C77.8856 91.1184 77.6873 91.316 77.6873 91.5486V112.873C77.6873 113.108 77.8856 113.303 78.119 113.303H78.7139C78.9473 113.303 79.1456 113.106 79.1456 112.873V91.5486C79.1456 91.3142 78.9473 91.1184 78.7139 91.1184H78.119Z" fill="#002A47"/>
<path d="M98.1787 114.666H97.5839C96.5924 114.666 95.7852 113.861 95.7852 112.873V91.5486C95.7852 90.5605 96.5924 89.7578 97.5839 89.7578H98.1787C99.1702 89.7578 99.9774 90.5622 99.9774 91.5486V112.873C99.9774 113.861 99.1702 114.666 98.1787 114.666ZM97.5839 91.1184C97.3505 91.1184 97.1522 91.316 97.1522 91.5486V112.873C97.1522 113.108 97.3505 113.303 97.5839 113.303H98.1787C98.4121 113.303 98.6104 113.106 98.6104 112.873V91.5486C98.6104 91.3142 98.4121 91.1184 98.1787 91.1184H97.5839Z" fill="#002A47"/>
<path d="M98.8419 99.1172H96.9151C96.2997 99.1172 95.8008 99.6144 95.8008 100.228V104.44C95.8008 105.054 96.2997 105.551 96.9151 105.551H98.8419C99.4573 105.551 99.9562 105.054 99.9562 104.44V100.228C99.9562 99.6144 99.4573 99.1172 98.8419 99.1172Z" fill="#FFCE00"/>
<path d="M98.8448 106.23H96.9198C95.9283 106.23 95.1211 105.426 95.1211 104.439V100.228C95.1211 99.2402 95.9283 98.4375 96.9198 98.4375H98.8448C99.8363 98.4375 100.644 99.2419 100.644 100.228V104.439C100.644 105.427 99.8363 106.23 98.8448 106.23ZM96.9198 99.7963C96.6864 99.7963 96.4881 99.9939 96.4881 100.226V104.438C96.4881 104.672 96.6864 104.868 96.9198 104.868H98.8448C99.0782 104.868 99.2765 104.67 99.2765 104.438V100.226C99.2765 99.9922 99.0782 99.7963 98.8448 99.7963H96.9198Z" fill="#002A47"/>
<path d="M79.2794 99.1484H77.3526C76.7372 99.1484 76.2383 99.6456 76.2383 100.259V104.472C76.2383 105.085 76.7372 105.582 77.3526 105.582H79.2794C79.8948 105.582 80.3937 105.085 80.3937 104.472V100.259C80.3937 99.6456 79.8948 99.1484 79.2794 99.1484Z" fill="#FFCE00"/>
<path d="M79.3019 106.23H77.3768C76.3853 106.23 75.5781 105.426 75.5781 104.439V100.228C75.5781 99.2402 76.3853 98.4375 77.3768 98.4375H79.3019C80.2933 98.4375 81.1006 99.2419 81.1006 100.228V104.439C81.1006 105.427 80.2933 106.23 79.3019 106.23ZM77.3768 99.7963C77.1434 99.7963 76.9451 99.9939 76.9451 100.226V104.438C76.9451 104.672 77.1434 104.868 77.3768 104.868H79.3019C79.5353 104.868 79.7336 104.67 79.7336 104.438V100.226C79.7336 99.9922 79.5353 99.7963 79.3019 99.7963H77.3768Z" fill="#002A47"/>
<path d="M97.4714 81.0177C97.331 89.7791 93.4037 90.8493 88.441 90.8248C84.2961 90.8021 84.0206 87.6403 84.0206 87.6403C84.0206 87.6403 82.4992 87.2556 82.0745 85.5278C81.6902 83.9679 83.317 81.6 83.8171 80.9197C83.9083 80.7973 83.961 80.7309 83.961 80.7309C83.961 80.7309 84.1312 79.6991 84.1329 77.9153C84.1329 77.5691 84.1277 77.1931 84.1136 76.7909C84.0101 74.0733 83.4977 70.1455 81.8008 65.6616L85.8965 50.8984C93.1562 58.6927 96.4009 66.0446 97.2783 76.4289C97.3187 76.8993 97.3555 77.3767 97.3854 77.8611C97.3994 78.092 97.4135 78.3263 97.4257 78.5624C97.4714 79.442 97.4872 80.2587 97.4731 81.0177H97.4714Z" fill="white"/>
<g opacity="0.35">
<path d="M97.4708 81.0173C97.3304 89.7787 93.4031 90.8489 88.4405 90.8245C84.2956 90.8017 84.0201 87.6399 84.0201 87.6399C84.0201 87.6399 82.4987 87.2552 82.074 85.5274C81.9389 84.9783 82.0512 84.3295 82.2793 83.686C82.8566 84.9171 84.1728 84.0934 84.1728 84.0934C84.1728 84.0934 84.2956 88.3744 88.4405 88.3954C93.2803 88.4199 97.1339 87.4021 97.4533 79.2266C97.4778 79.8561 97.4831 80.4525 97.4708 81.0156V81.0173Z" fill="#002A47"/>
</g>
<path d="M97.3836 77.8611C92.5701 77.5761 86.7178 77.7912 84.1329 77.9136C84.1347 75.2187 83.7486 70.8083 81.8008 65.6616L83.1274 58.7645L85.8948 50.8984C93.4844 59.046 96.6852 66.7092 97.3819 77.8594L97.3836 77.8611Z" fill="#4A83FF"/>
<g opacity="0.7">
<path d="M97.383 77.8594C92.5696 77.5743 86.7172 77.7894 84.1324 77.9118C84.1324 77.4607 84.1218 76.9605 84.0938 76.4201C87.0682 76.3134 91.4956 76.2278 95.279 76.4534C94.642 66.2632 91.915 58.983 85.6538 51.5857L85.896 50.8984C93.4856 59.046 96.6864 66.7092 97.383 77.8594Z" fill="white"/>
</g>
<path d="M83.3449 75.3943C83.2045 74.5916 83.1062 73.7871 82.9939 72.9827C82.8798 72.1783 82.7798 71.3703 82.65 70.5624C82.5219 69.7544 82.378 68.9465 82.2165 68.1368C82.0603 67.3271 81.8813 66.5175 81.7129 65.6973C81.7023 65.6448 81.7357 65.5923 81.7883 65.5801C81.8322 65.5714 81.8743 65.5924 81.8954 65.6273C82.3095 66.3601 82.6693 67.1225 82.9957 67.9007C83.3185 68.6807 83.6046 69.4764 83.8503 70.2861C84.0942 71.0958 84.3118 71.9177 84.4574 72.7519C84.6048 73.586 84.7066 74.4307 84.7066 75.2806C84.7066 75.6583 84.3995 75.9644 84.0222 75.9644C83.6835 75.9644 83.4028 75.7195 83.3466 75.3995V75.3943H83.3449Z" fill="#002A47"/>
<path d="M88.6135 91.502C88.5538 91.502 88.4959 91.502 88.4362 91.502C84.7107 91.4845 83.6912 89.1411 83.4262 88.1408C82.8296 87.8698 81.7767 87.1912 81.4082 85.6873C80.9379 83.7759 82.7787 81.158 83.3086 80.455C83.3718 79.9653 83.5333 78.3879 83.3929 76.0952C83.3701 75.7193 83.6561 75.3975 84.0334 75.3748C84.4107 75.352 84.7336 75.6371 84.7564 76.0131C84.9371 78.9597 84.6476 80.7627 84.6353 80.8379C84.616 80.9516 84.5686 81.0583 84.4984 81.1475C83.6736 82.1932 82.4663 84.2638 82.7366 85.3638C83.0542 86.6526 84.1492 86.9674 84.1948 86.9814C84.4703 87.0566 84.6756 87.2962 84.7002 87.5812C84.7265 87.8366 85.0617 90.1275 88.445 90.1432C90.793 90.1554 93.1707 89.9438 94.7097 88.335C96.3329 86.6386 96.998 83.4541 96.7436 78.5977C96.1399 67.1153 92.9584 59.4801 85.3969 51.3623C85.1407 51.0877 85.1565 50.6557 85.432 50.4004C85.7075 50.1451 86.1409 50.1608 86.3971 50.4354C94.2026 58.8138 97.4859 66.6886 98.1071 78.5243C98.3861 83.8476 97.621 87.263 95.6977 89.2723C93.8428 91.2099 91.2089 91.502 88.6152 91.502H88.6135Z" fill="#002A47"/>
<path d="M84.553 83.9032L84.6986 87.5669V87.5792C84.7144 87.9569 84.4196 88.2734 84.0406 88.2892C83.6615 88.3049 83.3439 88.0111 83.3281 87.6334C83.3281 87.5967 83.3281 87.5564 83.3334 87.5215L83.7914 83.8648C83.8177 83.6567 84.009 83.508 84.2178 83.5343C84.4056 83.557 84.546 83.7144 84.553 83.8962V83.9015V83.9032Z" fill="#002A47"/>
<path d="M29.9619 45.3066C29.16 42.5803 31.9343 40.3506 31.9343 40.3506C31.9343 40.3506 29.432 35.8667 31.3833 34.6513C32.4292 34.0008 35.3299 37.0699 36.0038 39.0792C36.6776 41.0903 36.6794 43.0227 36.6794 43.0227" fill="white"/>
<path d="M29.852 45.3364C29.7959 45.228 29.7397 45.1143 29.6888 44.9972C29.6643 44.9394 29.6362 44.88 29.6134 44.8205C29.5958 44.7593 29.58 44.6981 29.5642 44.6369C29.5344 44.5127 29.4941 44.3868 29.4765 44.2574L29.4432 43.8674C29.4274 43.3446 29.5186 42.8129 29.6941 42.318C29.8731 41.8249 30.1258 41.3667 30.4224 40.9452C30.5715 40.7354 30.7312 40.5343 30.9032 40.3402C30.9857 40.2405 31.0787 40.1513 31.1699 40.0569C31.2664 39.9624 31.3507 39.8802 31.4735 39.7753L31.2927 40.7039C30.9155 40.0289 30.6294 39.3661 30.3925 38.6456C30.1644 37.9286 29.9749 37.1854 29.9556 36.3512C29.9486 35.9367 29.9994 35.482 30.196 35.0239C30.2381 34.9102 30.3136 34.7983 30.375 34.6898C30.4557 34.5867 30.5259 34.4747 30.6242 34.3873L30.7663 34.2509L30.9225 34.1337C30.9944 34.0725 31.2243 33.9396 31.3928 33.9081C31.7613 33.8224 32.0543 33.8872 32.2912 33.9571C32.5299 34.0323 32.7335 34.1285 32.9177 34.2317C33.2897 34.438 33.6003 34.6776 33.8987 34.9277C34.4883 35.4296 35.0007 35.9822 35.4517 36.5873C35.6798 36.8881 35.8886 37.2046 36.0799 37.5386C36.2729 37.8709 36.4432 38.2224 36.5818 38.6036C36.6151 38.698 36.6502 38.803 36.6765 38.8939L36.752 39.165C36.8011 39.3468 36.838 39.5287 36.8748 39.7123C36.9433 40.0796 36.9872 40.4468 37.0082 40.8158C37.0398 41.5556 37.0047 42.2935 36.7924 43.021C36.7748 43.084 36.7081 43.119 36.645 43.1015C36.6064 43.091 36.5783 43.0613 36.566 43.028V43.021C36.3238 42.3338 36.1273 41.6622 35.9185 41.0082C35.8132 40.6812 35.7131 40.3576 35.6026 40.0394C35.5482 39.8802 35.4956 39.7211 35.4376 39.5654L35.3534 39.3311C35.3253 39.2542 35.2973 39.193 35.2674 39.123C35.1411 38.8484 34.9831 38.5704 34.8129 38.2958C34.6392 38.0213 34.4479 37.7537 34.2496 37.4896C33.8478 36.9668 33.4073 36.4596 32.9335 36.0242C32.6966 35.8091 32.4474 35.6062 32.2053 35.4593C32.0842 35.3824 31.9648 35.3264 31.8666 35.2914C31.7683 35.2547 31.6964 35.2565 31.7192 35.2547C31.7227 35.2512 31.7297 35.2477 31.742 35.2442C31.742 35.2442 31.7578 35.2285 31.7455 35.239L31.7174 35.2599L31.6578 35.3002C31.642 35.3177 31.6262 35.3334 31.6086 35.3474C31.57 35.3736 31.5525 35.4191 31.5191 35.4523C31.4998 35.4995 31.4647 35.531 31.4489 35.5852C31.3594 35.7758 31.3191 36.0417 31.3296 36.3319C31.3489 36.916 31.5314 37.5561 31.7613 38.1734C31.8789 38.4829 32.0087 38.7925 32.1491 39.0985C32.2842 39.4011 32.4386 39.7176 32.5808 39.9939L32.6018 40.0341C32.7598 40.3454 32.6668 40.7161 32.4 40.9225C32.3421 40.968 32.2526 41.0449 32.1789 41.1114L31.9491 41.33C31.7946 41.4751 31.6472 41.6308 31.5103 41.7934C31.2296 42.1134 30.9786 42.4527 30.7575 42.8094C30.5399 43.1697 30.3732 43.5492 30.2451 43.9566C30.1223 44.3676 30.0872 44.8013 30.0767 45.277V45.2909C30.0767 45.3539 30.0223 45.4046 29.9591 45.4029C29.9152 45.4029 29.8784 45.3766 29.8591 45.3399L29.852 45.3364Z" fill="#002A47"/>
<g opacity="0.35">
<path d="M97.4707 81.0143C97.297 81.0877 97.1022 81.1157 96.9004 81.0964C93.4574 80.7467 88.4913 80.7065 84.4903 81.0527C84.2481 81.072 84.0165 81.0213 83.8164 80.9163C83.9077 80.7939 83.9603 80.7275 83.9603 80.7275C83.9603 80.7275 84.1305 79.6957 84.1323 77.9119C84.1323 77.5657 84.127 77.1897 84.113 76.7875C88.1561 76.2541 93.3135 76.0897 96.8583 76.3205C97.0074 76.3293 97.1496 76.366 97.2777 76.4272C97.318 76.8976 97.3549 77.375 97.3847 77.8595C97.3987 78.0903 97.4128 78.3246 97.4251 78.5607C97.4707 79.4404 97.4865 80.257 97.4724 81.016L97.4707 81.0143Z" fill="#002A47"/>
</g>
<path d="M96.8993 77.8765C93.4564 77.525 88.4885 77.4865 84.4892 77.8328C83.8066 77.8923 83.2064 77.3764 83.1766 76.6943C83.1503 76.1312 83.1099 75.5262 83.0485 74.8844C82.9871 74.2391 83.4433 73.6567 84.0891 73.571C88.1375 73.0359 93.3072 72.8715 96.859 73.1006C97.4381 73.1373 97.9066 73.5833 97.975 74.1569C98.0716 74.9473 98.154 75.7518 98.2225 76.5754C98.2856 77.3274 97.6539 77.9552 96.8993 77.8783V77.8765Z" fill="white"/>
<g opacity="0.35">
<path d="M96.8982 77.8785C93.4553 77.5288 88.4891 77.4886 84.4881 77.8348C83.8055 77.8925 83.2053 77.3784 83.1755 76.6946C83.1632 76.3991 83.1439 76.0913 83.1211 75.7712C87.08 75.4442 91.9268 75.4897 95.3066 75.8325C96.0612 75.9094 96.6929 75.2816 96.6297 74.5279C96.5876 74.0382 96.542 73.5555 96.4929 73.0781C96.6157 73.0851 96.7385 73.0921 96.8579 73.1009C97.437 73.1393 97.9055 73.5835 97.9739 74.1571C98.0704 74.9476 98.1529 75.7538 98.2214 76.5739C98.2863 77.3277 97.6546 77.9555 96.9 77.8785H96.8982Z" fill="#002A47"/>
</g>
<path d="M97.0244 78.561C96.9594 78.561 96.8963 78.5575 96.8313 78.5505C93.3182 78.192 88.3836 78.1746 84.5493 78.5068C84.0387 78.5505 83.521 78.3827 83.1349 78.0451C82.7454 77.7059 82.519 77.2355 82.4944 76.7196C82.4681 76.1372 82.426 75.5391 82.3681 74.9428C82.2716 73.9268 82.9875 73.0244 83.9983 72.8915C87.973 72.3651 93.1585 72.1745 96.9015 72.4158C97.807 72.4735 98.5423 73.1695 98.6511 74.0684C98.7476 74.8659 98.8318 75.6878 98.902 76.5115C98.9494 77.0746 98.7441 77.6254 98.3405 78.0207C97.986 78.3687 97.514 78.5593 97.0226 78.5593L97.0244 78.561ZM96.97 77.197C97.1806 77.218 97.3209 77.1148 97.3859 77.0518C97.4999 76.9417 97.5561 76.786 97.5438 76.6269C97.4771 75.8207 97.3929 75.0145 97.2999 74.2346C97.27 73.9845 97.0665 73.7921 96.8173 73.7764C93.1532 73.5403 88.0748 73.7274 84.1808 74.2433C83.9018 74.28 83.7035 74.5318 83.7298 74.8169C83.7895 75.436 83.8334 76.0568 83.8597 76.6619C83.8667 76.8018 83.9281 76.9312 84.0352 77.0239C84.144 77.12 84.2879 77.1655 84.4318 77.1533C88.3415 76.8158 93.3814 76.8332 96.97 77.1987V77.197Z" fill="#002A47"/>
<path d="M84.8041 45.4628C80.2854 49.3608 61.2438 69.7796 61.2438 69.7796L55.7617 49.3731C57.0199 46.1816 58.4764 42.9725 60.1365 39.8125L83.2738 41.2815C83.8143 42.6892 84.3232 44.0848 84.8023 45.4646L84.8041 45.4628Z" fill="white"/>
<path d="M84.8041 45.4628C80.2854 49.3608 61.2438 69.7796 61.2438 69.7796L55.7617 49.3731C57.0199 46.1816 58.4764 42.9725 60.1365 39.8125L83.2738 41.2815C83.8143 42.6892 84.3232 44.0848 84.8023 45.4646L84.8041 45.4628Z" fill="white"/>
<path d="M61.243 70.4556C61.1886 70.4556 61.1324 70.4486 61.078 70.4346C60.8376 70.3751 60.6481 70.1898 60.5832 69.9502L55.1011 49.5437C55.0642 49.4038 55.0713 49.2551 55.1257 49.1187C56.4242 45.824 57.9071 42.5853 59.532 39.4899C59.6566 39.2521 59.9146 39.1104 60.1795 39.1262L83.3169 40.5952C83.5836 40.6126 83.8153 40.7823 83.9118 41.0306C84.4417 42.4139 84.9594 43.8287 85.4473 45.2347C85.5385 45.497 85.4595 45.789 85.249 45.9709C80.811 49.8007 61.9326 70.0324 61.7431 70.2352C61.6115 70.3751 61.4307 70.4521 61.243 70.4521V70.4556ZM56.4786 49.409L61.5834 68.4113C65.2545 64.4852 79.5475 49.2551 84.0065 45.2504C83.617 44.1382 83.2081 43.0242 82.7922 41.926L60.5375 40.513C59.0494 43.3792 57.6859 46.3696 56.4804 49.4073L56.4786 49.409Z" fill="#002A47"/>
<path d="M61.243 70.4556C61.1886 70.4556 61.1324 70.4486 61.078 70.4346C60.8376 70.3751 60.6481 70.1898 60.5832 69.9502L55.1011 49.5437C55.0642 49.4038 55.0713 49.2551 55.1257 49.1187C56.4242 45.824 57.9071 42.5853 59.532 39.4899C59.6566 39.2521 59.9146 39.1104 60.1795 39.1262L83.3169 40.5952C83.5836 40.6126 83.8153 40.7823 83.9118 41.0306C84.4417 42.4139 84.9594 43.8287 85.4473 45.2347C85.5385 45.497 85.4595 45.789 85.249 45.9709C84.2171 46.861 82.3167 48.7147 79.5967 51.4831C72.4265 58.7825 61.8484 70.1216 61.7413 70.2352C61.6097 70.3751 61.429 70.4521 61.2412 70.4521L61.243 70.4556ZM56.4786 49.409L61.5834 68.4113C64.2385 65.573 72.6195 56.6437 78.621 50.5335C81.0883 48.0222 82.8957 46.2472 84.0065 45.2504C83.617 44.1382 83.2081 43.0242 82.7922 41.926L60.5375 40.513C59.0494 43.3792 57.6859 46.3696 56.4804 49.4073L56.4786 49.409Z" fill="#002A47"/>
<path d="M62.2384 53.1481L60.9627 54.8375C60.7223 55.1557 60.6749 55.5789 60.8381 55.9409L61.726 57.9118C61.8963 58.2878 62.263 58.5379 62.6754 58.5554L64.095 58.6201C64.4267 58.6358 64.7478 58.4994 64.9672 58.2511L66.4676 56.553C66.7992 56.177 66.8326 55.6262 66.5483 55.2134L65.155 53.1866C64.9514 52.8893 64.6127 52.7109 64.2512 52.7109H63.1141C62.7702 52.7109 62.4455 52.8718 62.2384 53.1464V53.1481Z" fill="#EC1C24"/>
<path d="M64.1468 59.3087C64.1187 59.3087 64.0924 59.3087 64.0643 59.307L62.6447 59.2423C61.9691 59.2126 61.3795 58.8121 61.1022 58.1965L60.2143 56.2256C59.9493 55.6363 60.0265 54.9508 60.4161 54.4349L61.6918 52.7456C62.0252 52.3031 62.557 52.0391 63.1132 52.0391H64.2504C64.8382 52.0391 65.3857 52.3276 65.7174 52.8103L67.1107 54.8371C67.5705 55.5069 67.5161 56.4005 66.9791 57.0108L65.4787 58.7089C65.1383 59.0936 64.6557 59.3105 64.1451 59.3105L64.1468 59.3087ZM62.7833 53.564L61.5076 55.2533C61.4163 55.3722 61.3988 55.5331 61.4602 55.6695L62.3481 57.6404C62.4131 57.7838 62.5499 57.8765 62.7061 57.8835L64.1258 57.9482C64.2521 57.9552 64.3714 57.9027 64.4557 57.8083L65.956 56.1102C66.0806 55.9686 66.0929 55.7605 65.9876 55.6048L64.5943 53.578C64.5171 53.4661 64.3907 53.3996 64.2539 53.3996H63.1167C62.9869 53.3996 62.864 53.4608 62.7868 53.564H62.7833Z" fill="#002A47"/>
<path d="M61.8901 96.329C61.5725 96.329 61.29 96.1087 61.2215 95.7869C58.3226 81.9068 60.5512 69.7685 60.574 69.6479C60.6442 69.2789 61.0004 69.0358 61.3707 69.1057C61.741 69.1757 61.9849 69.5307 61.9164 69.8997C61.8936 70.0186 59.7176 81.9051 62.5587 95.5106C62.6359 95.8778 62.399 96.2381 62.0288 96.315C61.9814 96.3255 61.9357 96.329 61.8884 96.329H61.8901Z" fill="#002A47"/>
<g opacity="0.35">
<path d="M86.8912 51.9963C86.8912 51.9963 86.8912 51.998 86.8894 51.998C86.2489 52.6241 85.5785 53.2151 84.8871 53.7678C79.6297 57.9736 73.0123 60.0774 66.3667 59.7748C65.842 59.7486 65.3156 59.7101 64.7891 59.6577C63.3467 59.5055 61.9077 59.2432 60.4846 58.8585C59.3071 58.5402 58.1401 58.1432 56.996 57.6623C56.7871 57.5749 56.5801 57.4857 56.373 57.3912C55.3833 56.9505 54.4111 56.4434 53.4582 55.8698C53.3372 55.7981 53.2178 55.7281 53.1003 55.6529C52.6826 55.3906 52.272 55.1213 51.8754 54.845C51.0594 54.2767 50.2803 53.6698 49.5432 53.0298C48.0516 51.7322 46.7215 50.2999 45.5703 48.761C48.02 50.0953 50.9804 51.253 54.7393 52.0872C56.2098 48.0108 58.005 43.8749 60.1371 39.8125L83.2745 41.2815C84.6818 44.9574 85.8874 48.5477 86.8894 51.998L86.8912 51.9963Z" fill="#002A47"/>
</g>
<path d="M41.7342 37.9633C43.2819 42.2828 45.9194 46.2333 49.5414 49.3759C50.2802 50.0159 51.0576 50.6228 51.8753 51.1911C52.2719 51.4692 52.6825 51.7367 53.1002 51.9991C54.3636 52.7825 55.6657 53.4523 56.9959 54.0084C58.1418 54.4911 59.3087 54.888 60.4862 55.2063C61.9076 55.591 63.3466 55.8551 64.7891 56.0055C65.3155 56.058 65.8419 56.0982 66.3666 56.1227C75.9936 56.5599 85.5662 51.9448 91.0219 43.2132C99.059 30.3509 95.1107 13.4315 82.2074 5.42205C79.7208 3.88138 77.0833 2.7779 74.3862 2.10287C74.0721 2.02068 73.7545 1.94723 73.4351 1.88252C72.5822 1.6989 71.7276 1.55725 70.8695 1.45757C68.8866 1.22673 66.8931 1.21449 64.9294 1.4121C62.9658 1.60796 61.0267 2.01193 59.1526 2.61876C58.5559 2.81113 57.9681 3.02273 57.3837 3.25706C56.5098 3.60857 55.6534 4.0003 54.8146 4.44274C50.6329 6.63221 46.9635 9.92516 44.2857 14.2097C39.6617 21.6088 39.0054 30.3474 41.7359 37.9633H41.7342Z" fill="white"/>
<path d="M67.626 56.2203C67.2066 56.2203 66.7872 56.2116 66.3661 56.1924C65.8414 56.1679 65.3079 56.1277 64.7832 56.0752C63.3214 55.923 61.8684 55.6537 60.4681 55.2742C59.2713 54.9507 58.0938 54.5468 56.969 54.0728C55.6265 53.5115 54.3122 52.833 53.0645 52.0582C52.6065 51.7714 52.2046 51.5056 51.8361 51.2486C51.0342 50.6907 50.2462 50.0786 49.4969 49.4281C45.9592 46.359 43.2533 42.4015 41.6704 37.9858C38.8153 30.0201 39.7471 21.3409 44.2272 14.1727C46.8173 10.0263 50.4673 6.63893 54.7825 4.38126C55.5984 3.95106 56.4653 3.55059 57.3585 3.19209C57.9306 2.963 58.5273 2.7479 59.1327 2.55204C61.0103 1.94521 62.9599 1.53774 64.9236 1.34188C66.9065 1.14252 68.9105 1.15826 70.8795 1.38735C71.7358 1.48703 72.6009 1.63043 73.452 1.81405C73.7925 1.884 74.1048 1.95745 74.4067 2.03615C77.1565 2.72516 79.7957 3.84438 82.2454 5.36232C95.1627 13.3805 99.1269 30.3751 91.0827 43.2479C86.0359 51.329 77.1337 56.2186 67.6278 56.2186L67.626 56.2203ZM67.6927 1.34188C66.7732 1.34188 65.8519 1.38735 64.9359 1.48003C62.981 1.67415 61.0419 2.07986 59.173 2.68319C58.5711 2.87731 57.978 3.09066 57.4094 3.31975C56.5197 3.6765 55.6581 4.07347 54.8456 4.50192C50.5516 6.74911 46.9208 10.119 44.343 14.2444C39.8858 21.3776 38.9575 30.0131 41.7985 37.9386C43.3743 42.3315 46.0662 46.268 49.5864 49.3232C50.3322 49.9684 51.1149 50.5788 51.9133 51.1349C52.2801 51.392 52.6802 51.656 53.1347 51.9411C54.3771 52.7123 55.6844 53.3856 57.0199 53.9452C58.1394 54.4173 59.3099 54.8178 60.5014 55.1396C61.8948 55.5156 63.339 55.7849 64.7937 55.9353C65.3149 55.9878 65.8449 56.028 66.3678 56.0525C66.7872 56.0717 67.2049 56.0804 67.6225 56.0804C77.0828 56.0804 85.9394 51.2153 90.9617 43.1744C98.9654 30.3664 95.0206 13.4557 82.1682 5.47774C79.729 3.9668 77.1038 2.85283 74.3663 2.1673C74.0662 2.08861 73.7556 2.01691 73.4169 1.94696C72.5694 1.76508 71.7095 1.62343 70.8566 1.52375C69.8073 1.40134 68.7473 1.34013 67.6874 1.34013L67.6927 1.34188Z" fill="#002A47"/>
<g opacity="0.35">
<path d="M91.0209 43.2111C85.5669 51.9445 75.9908 56.5596 66.3656 56.1206C65.8391 56.0961 65.3144 56.0577 64.788 56.0035C63.3455 55.8531 61.9066 55.589 60.4852 55.206C59.3077 54.8877 58.1407 54.4908 56.9948 54.0081C55.6629 53.452 54.3626 52.7822 53.0991 51.9987C52.6832 51.7347 52.2726 51.4671 51.8742 51.1908C51.0565 50.6225 50.2808 50.0139 49.5421 49.3738C45.9201 46.2313 43.2826 42.2808 41.7331 37.9613C40.882 35.5882 40.3591 33.1049 40.1836 30.5884C41.7559 34.6771 44.3144 38.409 47.7715 41.4081C48.5102 42.0499 49.2859 42.6568 50.1036 43.2251C50.5002 43.5032 50.9091 43.769 51.3285 44.0331C52.5937 44.8165 53.894 45.4863 55.2224 46.0424C56.3683 46.5233 57.5353 46.922 58.7128 47.2403C60.1342 47.6233 61.5749 47.8874 63.0156 48.0378C63.5421 48.0902 64.0685 48.1305 64.5949 48.1532C74.2202 48.5921 83.7945 43.9771 89.2502 35.2437C92.4335 30.1495 93.7356 24.4187 93.346 18.8594C96.3327 26.6135 95.7641 35.6197 91.0191 43.2111H91.0209Z" fill="#002A47"/>
</g>
<path d="M67.6237 56.6747C67.1973 56.6747 66.7709 56.666 66.3427 56.645C65.8075 56.6187 65.267 56.5785 64.7353 56.5261C63.2472 56.3704 61.7714 56.0976 60.3464 55.7111C59.1286 55.3824 57.9318 54.9714 56.7894 54.4905C55.4259 53.9204 54.0905 53.2314 52.82 52.4427C52.3532 52.1489 51.9461 51.8813 51.5706 51.619C50.7563 51.0524 49.9561 50.4298 49.1945 49.7705C45.5972 46.6489 42.8456 42.6268 41.2364 38.1376C38.3339 30.0408 39.2815 21.2164 43.8353 13.9275C46.4693 9.71122 50.179 6.26962 54.5661 3.97172C55.3943 3.53453 56.277 3.12881 57.1843 2.76332C57.7669 2.53073 58.374 2.31038 58.9882 2.11277C60.8975 1.49545 62.8787 1.08099 64.8756 0.883377C66.8902 0.680519 68.9275 0.696258 70.9298 0.930594C71.8002 1.03202 72.6811 1.17892 73.5462 1.36429C73.8902 1.43599 74.2113 1.50944 74.5202 1.59163C77.3121 2.29114 79.9952 3.42785 82.4871 4.97202C95.6202 13.1231 99.651 30.4028 91.4718 43.4889C86.3407 51.7047 77.291 56.6764 67.6255 56.6764L67.6237 56.6747ZM67.6904 1.79624C66.7866 1.79624 65.8812 1.84171 64.9809 1.93264C63.0576 2.12326 61.1519 2.52198 59.3146 3.11657C58.7232 3.30719 58.1389 3.51879 57.5808 3.74263C56.7069 4.09414 55.8594 4.48411 55.0609 4.90557C50.8388 7.11603 47.2677 10.4282 44.7338 14.4854C40.3502 21.498 39.4395 29.9901 42.2332 37.7826C43.7809 42.1021 46.4289 45.9722 49.8894 48.9748C50.623 49.6096 51.3916 50.2095 52.1777 50.7551C52.5392 51.0087 52.9323 51.2675 53.3815 51.549C54.6011 52.3062 55.8857 52.969 57.2 53.5182C58.3003 53.9816 59.4515 54.3768 60.6237 54.6933C61.9942 55.0641 63.4139 55.3281 64.8441 55.4768C65.3565 55.5292 65.8776 55.5677 66.3918 55.5922C66.8024 55.6114 67.2148 55.6202 67.6255 55.6202C76.926 55.6202 85.6335 50.8355 90.5715 42.931C98.4419 30.3381 94.5638 13.7107 81.9255 5.8674C79.5267 4.38094 76.9471 3.2862 74.2552 2.61292C73.9586 2.53597 73.655 2.46602 73.3251 2.39607C72.4898 2.21595 71.644 2.07604 70.8052 1.97811C69.7734 1.85745 68.7327 1.79799 67.6904 1.79799V1.79624Z" fill="#002A47"/>
<path d="M67.6247 56.8323C67.1965 56.8323 66.7666 56.8218 66.3367 56.8026C65.7997 56.7763 65.2557 56.7361 64.7205 56.6819C63.2236 56.5263 61.739 56.25 60.3071 55.8635C59.084 55.533 57.8802 55.1202 56.7308 54.6358C55.3602 54.0622 54.016 53.3697 52.7403 52.5775C52.27 52.282 51.8611 52.0127 51.4838 51.7486C50.6643 51.1785 49.8606 50.5524 49.0955 49.8896C45.4788 46.7506 42.7115 42.7057 41.0935 38.1921C38.1752 30.0497 39.1264 21.1782 43.7065 13.849C46.3545 9.61 50.0852 6.14916 54.4969 3.83902C55.3304 3.40008 56.2166 2.99087 57.1291 2.62537C57.7152 2.39103 58.3259 2.17069 58.9418 1.97133C60.8616 1.35051 62.8533 0.9343 64.8609 0.734939C66.8859 0.532081 68.9356 0.54782 70.9483 0.782157C71.824 0.883586 72.7084 1.03048 73.5788 1.2176C73.9245 1.2893 74.2474 1.3645 74.5598 1.44494C77.3657 2.14795 80.0629 3.29166 82.5688 4.84457C95.7738 13.0411 99.8257 30.4135 91.6026 43.5731C86.4434 51.8325 77.3447 56.8323 67.6265 56.8323H67.6247ZM67.6914 1.95384C66.7929 1.95384 65.8927 1.99931 64.996 2.0885C63.085 2.27911 61.1898 2.67434 59.3612 3.26542C58.7734 3.45604 58.1925 3.66415 57.6362 3.88799C56.7676 4.236 55.9235 4.62597 55.1304 5.04393C50.9328 7.24215 47.3828 10.5351 44.8629 14.5695C40.5039 21.5437 39.5984 29.9868 42.3763 37.7356C43.9153 42.0306 46.5493 45.8779 49.9887 48.8649C50.717 49.4962 51.4838 50.0925 52.2647 50.6364C52.6245 50.8882 53.0158 51.147 53.4633 51.4268C54.6741 52.1788 55.9534 52.8381 57.259 53.3837C58.354 53.8454 59.4981 54.2371 60.6633 54.5519C62.0251 54.9209 63.4377 55.1814 64.8591 55.3301C65.368 55.3808 65.8874 55.4193 66.3998 55.4438C66.8087 55.463 67.2193 55.4717 67.6265 55.4717C76.8744 55.4717 85.5327 50.7151 90.4427 42.8543C98.2674 30.333 94.4121 13.8001 81.8458 6.00052C79.461 4.5228 76.8954 3.43331 74.2193 2.76352C73.9228 2.68658 73.6227 2.61663 73.2945 2.54842C72.4628 2.37005 71.6222 2.23015 70.7887 2.13396C69.7638 2.01505 68.7267 1.95384 67.6914 1.95384Z" fill="#002A47"/>
<path d="M44.9395 44.2258C59.1589 57.7788 82.0681 53.2023 86.1814 34.221C88.9804 21.3063 78.4532 8.60489 65.8342 6.71971C56.6495 5.34866 47.0822 8.01206 41.0491 21.6368C41.0491 21.6368 39.3136 28.0793 40.4191 32.7153C41.5247 37.3531 43.3865 41.6761 43.3865 41.6761L44.9413 44.2275L44.9395 44.2258Z" fill="#002A47"/>
<path d="M86.181 34.2228C82.0677 53.2058 59.1585 57.7806 44.9391 44.2293L44.625 43.7117C61.6801 49.5316 80.7779 41.7565 85.2966 22.6406C86.6408 26.2728 87.0444 30.2373 86.181 34.2228Z" fill="#220F2D"/>
<path d="M63.9111 55.5274C61.5614 55.5274 59.1801 55.2458 56.8304 54.674C56.7953 54.6652 56.7619 54.6547 56.7286 54.6407C55.3563 54.0671 54.0139 53.3729 52.7364 52.5824C52.2678 52.2869 51.8572 52.0176 51.4799 51.7535C50.6604 51.1834 49.8567 50.5573 49.0916 49.8946C45.4749 46.7555 42.7076 42.7106 41.0896 38.197C38.1713 30.0546 39.1225 21.1831 43.7025 13.854C46.3506 9.61491 50.0813 6.15408 54.493 3.84394C54.5351 3.82296 54.5789 3.80547 54.6246 3.79148C58.1202 2.80167 62.0282 2.6198 66.2415 3.24936C73.7469 4.37032 80.9276 8.93289 85.4498 15.4576C89.6052 21.4524 91.1074 28.3846 89.6789 34.9792C88.1242 42.1457 84.1986 47.8712 78.327 51.5332C74.1049 54.1651 69.0826 55.5291 63.9129 55.5291L63.9111 55.5274ZM57.2077 53.3641C64.3568 55.0919 71.7868 54.0042 77.6022 50.3772C83.1563 46.9146 86.8695 41.4899 88.3453 34.6889C89.6947 28.4668 88.2681 21.9106 84.3285 16.2288C80.0151 10.0084 73.1801 5.65917 66.0415 4.59417C62.0492 3.99783 58.3571 4.16222 55.0685 5.08033C50.8991 7.2768 47.3719 10.5575 44.8642 14.571C40.5053 21.5451 39.5998 29.9882 42.3777 37.737C43.9166 42.032 46.5506 45.8794 49.9901 48.8663C50.7183 49.4976 51.4852 50.0939 52.2661 50.6378C52.6258 50.8896 53.0172 51.1484 53.4646 51.4282C54.6614 52.1697 55.9214 52.822 57.2112 53.3641H57.2077Z" fill="#002A47"/>
<path d="M63.8762 52.7205C56.9218 52.7205 49.9183 49.9154 44.4678 44.7198C44.424 44.6778 44.3871 44.6324 44.3555 44.5816L42.8008 42.0302C42.785 42.0022 42.7692 41.9742 42.7569 41.9445C42.6797 41.7661 40.8599 37.5131 39.7526 32.8736C38.619 28.1239 40.3142 21.7303 40.3879 21.461C40.3967 21.4278 40.4089 21.3946 40.423 21.3631C45.6945 9.4609 54.2756 4.30724 65.9346 6.04903C72.631 7.04933 79.0396 11.1205 83.074 16.9404C86.7837 22.2899 88.1244 28.4789 86.8486 34.3653C85.006 42.8661 79.3081 49.1599 71.2166 51.6327C68.8248 52.3637 66.354 52.7187 63.8762 52.7187V52.7205ZM45.4769 43.7982C52.5085 50.4593 62.2091 52.9635 70.8165 50.3334C78.4219 48.0093 83.7794 42.0861 85.5149 34.0802C86.71 28.5646 85.4447 22.7516 81.9526 17.7151C78.1271 12.1977 72.0642 8.33993 65.7328 7.39559C54.7774 5.76048 46.6895 10.6273 41.6952 21.8632C41.5426 22.4578 40.079 28.3547 41.0828 32.5605C42.1041 36.8415 43.801 40.9075 43.9958 41.3674L45.4786 43.7999L45.4769 43.7982Z" fill="#002A47"/>
<path d="M98.3508 35.5873C99.1338 30.2255 96.5988 25.4192 92.6887 24.8522C88.7786 24.2851 84.9741 28.172 84.1912 33.5338C83.4082 38.8956 85.9432 43.7019 89.8533 44.269C93.7634 44.836 97.5679 40.9491 98.3508 35.5873Z" fill="white"/>
<path d="M90.6058 45.0056C90.5163 45.0056 90.4268 45.0039 90.3355 44.9986C88.6176 44.9217 87.0522 44.1277 85.8098 42.706C83.9866 40.6214 83.1197 37.5103 83.4285 34.1737C83.9603 28.4377 87.8911 23.9258 92.2062 24.1234C93.9241 24.2021 95.4894 24.9943 96.7319 26.4161C98.5551 28.5006 99.422 31.6117 99.1132 34.9484C98.592 40.5655 94.8068 45.0039 90.6058 45.0039V45.0056ZM91.9307 25.4787C88.4245 25.4787 85.2448 29.375 84.7885 34.2996C84.5183 37.2253 85.2834 40.0338 86.8399 41.8123C87.8314 42.9473 89.0615 43.5786 90.3987 43.6381C93.9891 43.8025 97.2899 39.8467 97.7549 34.8225C98.0252 31.8968 97.2601 29.0882 95.7035 27.3097C94.7121 26.1748 93.4819 25.5434 92.1448 25.4822C92.0728 25.4787 92.0026 25.477 91.9307 25.477V25.4787Z" fill="#002A47"/>
<path d="M99.2258 36.621C99.993 32.3887 98.0465 28.4953 94.8783 27.925C91.71 27.3546 88.5196 30.3232 87.7524 34.5555C86.9852 38.7878 88.9317 42.6811 92.1 43.2515C95.2682 43.8219 98.4586 40.8533 99.2258 36.621Z" fill="white"/>
<path d="M92.8696 43.3948C92.0097 43.3948 91.1779 43.1447 90.4146 42.6533C87.5963 40.8311 86.6768 36.1811 88.365 32.2883C89.3108 30.1075 90.9007 28.5424 92.7292 27.9915C94.0752 27.5858 95.4018 27.7694 96.567 28.5231C99.3853 30.3454 100.305 34.9954 98.6166 38.8882C97.6708 41.0689 96.0809 42.6341 94.2524 43.1849C93.7874 43.3248 93.3241 43.3948 92.8678 43.3948H92.8696ZM94.112 27.9233C93.6716 27.9233 93.2223 27.9915 92.7713 28.1262C90.9832 28.6648 89.4266 30.202 88.4983 32.3442C86.8365 36.1776 87.7315 40.7471 90.4953 42.5344C91.6254 43.2654 92.91 43.442 94.2138 43.0503C96.002 42.5116 97.5585 40.9745 98.4885 38.8322C100.15 34.9989 99.2536 30.4293 96.4916 28.6421C95.7528 28.1647 94.9473 27.9233 94.1138 27.9233H94.112Z" fill="#002A47"/>
<g opacity="0.35">
<path d="M87.701 38.3674C87.4729 36.9089 87.6466 35.384 88.1257 33.9815C88.9241 37.2622 91.7073 38.8256 94.587 37.493C96.4488 36.6326 97.9229 34.7579 98.6634 32.5859C98.7143 32.7923 98.7564 33.0091 98.7915 33.2295C99.3688 36.9421 97.3543 41.1007 94.2904 42.519C91.2265 43.9373 88.2766 42.0766 87.6993 38.3657L87.701 38.3674Z" fill="#002A47"/>
</g>
<path d="M92.9073 44.0222C92.8529 44.0222 92.8003 44.0222 92.7459 44.0187C91.4684 43.9715 90.2996 43.3821 89.3626 42.3154C87.8903 40.6383 87.1743 37.9469 87.448 35.1174C87.9061 30.38 90.9858 26.6288 94.3322 26.753C95.6097 26.8002 96.7785 27.3896 97.7155 28.4563C99.1878 30.1334 99.9038 32.8248 99.63 35.6543C99.179 40.3148 96.1836 44.0222 92.9073 44.0222ZM94.1638 28.1118C91.5789 28.1118 89.1906 31.2771 88.808 35.2486C88.5694 37.7126 89.1625 40.0192 90.3909 41.42C91.0735 42.1965 91.9053 42.6249 92.7968 42.6599C92.8354 42.6599 92.8757 42.6616 92.9143 42.6616C95.4992 42.6616 97.8875 39.4964 98.27 35.5249C98.5087 33.0608 97.9156 30.7542 96.6872 29.3534C96.0046 28.577 95.1728 28.1485 94.2813 28.1153C94.2427 28.1153 94.2024 28.1135 94.1638 28.1135V28.1118Z" fill="#002A47"/>
<g opacity="0.7">
<path d="M71.5983 12.4631C71.5983 12.4631 59.1373 11.4051 51.2827 17.4716C51.2739 17.4786 51.2669 17.4839 51.2582 17.4909C49.6069 18.7692 48.3311 20.4708 47.5537 22.4067C46.5271 24.9651 46.1937 26.8801 45.9674 28.5764C45.2795 33.7353 45.9252 36.2797 45.9252 36.2797C43.3439 33.1652 42.098 29.8512 42.6279 25.5492C42.6806 25.126 42.7525 24.6906 42.8385 24.2464C42.8578 24.1432 42.8806 24.0435 42.9034 23.9404C42.9017 23.9404 42.9034 23.9369 42.9052 23.9351C43.1438 23.0467 43.5036 21.8925 44.016 20.6229C45.5638 16.7948 48.5101 11.9245 53.8184 10.1862C63.7437 6.93522 72.0932 11.9822 71.5966 12.4649L71.5983 12.4631Z" fill="white"/>
</g>
<g opacity="0.7">
<path d="M79.6655 30.6131C81.6809 30.3519 83.067 28.2426 82.7615 25.9018C82.4561 23.561 80.5747 21.8752 78.5593 22.1364C76.5439 22.3976 75.1578 24.5069 75.4633 26.8477C75.7688 29.1885 77.6502 30.8743 79.6655 30.6131Z" fill="white"/>
</g>
<g opacity="0.7">
<path d="M80.4943 35.7992C81.3144 35.6218 81.8111 34.7059 81.6037 33.7536C81.3962 32.8012 80.5631 32.1731 79.7429 32.3505C78.9227 32.528 78.426 33.4439 78.6335 34.3962C78.841 35.3485 79.6741 35.9767 80.4943 35.7992Z" fill="white"/>
</g>
<path d="M61.1494 71.0283C60.9546 71.0283 60.7634 70.9444 60.6317 70.7922L54.7268 63.958C54.5723 63.7796 54.5214 63.533 54.5934 63.3074L55.3076 61.0743L53.4773 60.0774C53.258 59.9585 53.1211 59.7294 53.1211 59.4794V52.4248C53.1211 52.0488 53.4264 51.7445 53.8037 51.7445C54.181 51.7445 54.4863 52.0488 54.4863 52.4248V59.0771L56.4553 60.1491C56.7431 60.3048 56.8782 60.6423 56.7781 60.9536L56.0078 63.3599L61.3617 69.5558L72.6453 65.684L73.091 62.1935C73.1243 61.9347 73.3033 61.7178 73.5508 61.6339L81.1386 59.1016L81.4826 52.2167C81.5019 51.8407 81.8212 51.5504 82.1985 51.5714C82.5758 51.5906 82.8654 51.9089 82.8461 52.2849L82.4793 59.6333C82.4653 59.9131 82.281 60.1561 82.0143 60.2453L74.3913 62.7898L73.9456 66.2769C73.9123 66.5339 73.7368 66.749 73.4911 66.8347L61.3688 70.9933C61.2968 71.0178 61.2214 71.0301 61.1459 71.0301L61.1494 71.0283Z" fill="#002A47"/>
<path d="M64.8145 58.3951L65.4884 65.2521L61.2435 69.7779L59.6992 64.0227L61.8559 58.1328L64.8145 58.3951Z" fill="#EC1C24"/>
<path d="M61.2432 70.4599C61.1888 70.4599 61.1326 70.4529 61.0782 70.4389C60.8378 70.3794 60.6483 70.1941 60.5851 69.9545L59.0391 64.1992C59.0023 64.0646 59.0093 63.9212 59.0567 63.79L61.2133 57.9001C61.3186 57.6098 61.6064 57.428 61.9153 57.456L64.8739 57.7183C65.2003 57.748 65.46 58.0033 65.4934 58.3303L66.1672 65.1873C66.1865 65.3814 66.1198 65.5755 65.9865 65.7189L61.7433 70.243C61.6117 70.3829 61.4309 70.4581 61.2449 70.4581L61.2432 70.4599ZM60.4131 64.0558L61.5854 68.4191L64.7774 65.0142L64.1878 59.0246L62.3154 58.8585L60.4114 64.0558H60.4131Z" fill="#002A47"/>
<path d="M66.7405 61.2832C66.5317 61.2832 66.3264 61.187 66.1947 61.0122L64.4224 58.6618C64.196 58.361 64.2557 57.9343 64.5575 57.7087C64.8593 57.4831 65.2875 57.5443 65.5139 57.8434L66.9405 59.7338L72.5981 56.8186C72.9333 56.6455 73.3457 56.7766 73.5176 57.1106C73.6914 57.4446 73.5597 57.8556 73.2246 58.027L67.0546 61.2063C66.9546 61.257 66.8475 61.2832 66.7422 61.2832H66.7405Z" fill="#002A47"/>
<path d="M60.057 60.1373C59.8745 60.1373 59.6937 60.0638 59.5603 59.9239L57.351 57.5928C57.0913 57.32 57.1036 56.8898 57.3791 56.631C57.6528 56.3722 58.0863 56.3862 58.3442 56.659L60.1728 58.5879L61.3959 57.8342C61.717 57.6365 62.1382 57.7362 62.3365 58.0545C62.5348 58.3745 62.4347 58.7942 62.1154 58.9918L60.4184 60.0359C60.3079 60.1041 60.1833 60.1373 60.0605 60.1373H60.057Z" fill="#002A47"/>
<path d="M64.2224 73.8369C64.317 73.2563 63.9213 72.7093 63.3387 72.615C62.7562 72.5208 62.2072 72.915 62.1126 73.4956C62.0181 74.0762 62.4137 74.6233 62.9963 74.7175C63.5789 74.8118 64.1278 74.4175 64.2224 73.8369Z" fill="#002A47"/>
<path d="M63.1624 80.4503C63.7527 80.4503 64.2311 79.9735 64.2311 79.3853C64.2311 78.7971 63.7527 78.3203 63.1624 78.3203C62.5722 78.3203 62.0938 78.7971 62.0938 79.3853C62.0938 79.9735 62.5722 80.4503 63.1624 80.4503Z" fill="#002A47"/>
<path d="M63.3421 86.3644C63.9323 86.3644 64.4108 85.8876 64.4108 85.2994C64.4108 84.7112 63.9323 84.2344 63.3421 84.2344C62.7519 84.2344 62.2734 84.7112 62.2734 85.2994C62.2734 85.8876 62.7519 86.3644 63.3421 86.3644Z" fill="#002A47"/>
</svg>
