<svg width="125" height="198" viewBox="0 0 125 198" fill="none" xmlns="http://www.w3.org/2000/svg">
<path d="M54.1734 113.658C54.5692 113.658 54.89 113.337 54.89 112.941V59.7332C54.89 59.3373 54.5692 59.0166 54.1734 59.0166C53.7776 59.0166 53.4568 59.3373 53.4568 59.7332V112.941C53.4568 113.337 53.7776 113.658 54.1734 113.658Z" fill="#003158"/>
<path d="M85.3937 135.359C85.3937 135.359 103.038 139.957 103.667 146.879C104.216 152.915 97.5994 173.265 93.7138 175.501C90.8795 177.132 82.3341 174.141 82.3341 174.141L85.3937 135.359Z" fill="white"/>
<g opacity="0.35">
<path d="M103.697 148.009C103.494 155.113 97.3848 173.389 93.7152 175.5C90.8803 177.131 82.336 174.141 82.336 174.141L83.693 166.225C83.693 166.225 92.2372 169.216 95.0721 167.585C97.7224 166.059 101.645 156.099 103.697 148.009H103.697Z" fill="#003158"/>
</g>
<path d="M90.1911 176.656C92.0236 176.656 93.8677 176.261 95.3975 175.131C99.6225 172.009 104.899 152.98 104.54 146.828C104.196 140.946 93.4131 137.326 92.9544 137.175C92.494 137.023 92.0027 137.273 91.8519 137.731C91.7011 138.188 91.9497 138.682 92.4072 138.833C95.22 139.762 102.569 143.028 102.796 146.93C103.14 152.821 97.7563 171.217 94.3602 173.726C90.229 176.778 82.5946 172.995 82.5177 172.956C82.0881 172.739 81.5625 172.912 81.3454 173.344C81.1282 173.774 81.3017 174.299 81.733 174.516C81.9769 174.639 86.0529 176.656 90.1917 176.656H90.1911Z" fill="#003158"/>
<path d="M65.0821 137.604C65.0821 137.604 65.8522 143.847 63.146 139.566C60.6761 135.655 57.6013 129.135 54.8881 118.504C54.8654 118.418 54.8421 118.329 54.8194 118.242C54.8194 118.242 53.597 118.136 52.098 117.386C48.5635 115.62 49.3208 108.736 50.0042 106.396C50.8069 103.639 52.7052 104.384 52.7052 104.384C53.3711 103.293 54.6844 102.714 56.8976 102.747C61.0521 102.809 61.8979 106.167 61.8979 106.167C65.7067 117.63 70.3467 124.694 73.1088 128.213C74.5699 130.08 75.5048 130.949 75.5048 130.949L65.0821 137.604V137.604Z" fill="white"/>
<g opacity="0.35">
<path d="M65.0829 137.604C65.0829 137.604 65.853 143.847 63.1468 139.566C60.6769 135.655 57.6022 129.135 54.8889 118.504C55.7988 118.283 57.1376 117.866 57.8443 117.236C59.6128 115.656 59.9329 112.015 59.9329 112.015C60.6647 115.527 59.9329 117.582 59.079 118.74C58.1592 119.986 57.8769 121.594 58.413 123.047C59.1931 125.159 60.1763 127.456 61.734 128.94C65.3117 132.348 70.2998 130.82 73.1096 128.214C74.5707 130.081 75.5056 130.95 75.5056 130.95L65.0829 137.605V137.604Z" fill="#003158"/>
</g>
<g opacity="0.35">
<path d="M53.5853 117.977C53.5853 117.977 56.8114 119.156 58.96 114.279C58.96 114.279 57.7195 114.898 54.6605 114.741C51.623 114.585 49.5624 111.694 49.5624 111.694C49.5624 111.694 49.3516 116.95 53.5853 117.977V117.977Z" fill="#003158"/>
</g>
<path d="M75.0658 131.044C75.3161 131.044 75.5647 130.941 75.7428 130.738C76.07 130.364 76.0333 129.796 75.6596 129.468C75.5542 129.374 68.4163 122.905 62.764 105.914C62.3938 104.512 60.7133 101.905 56.9126 101.848C54.7658 101.818 53.2646 102.321 52.3256 103.389C51.3436 104.508 51.0479 106.132 51.3931 108.504C51.7336 110.844 53.3193 112.483 55.0761 112.32C56.6909 112.168 58.3499 110.418 58.1613 105.961C58.1403 105.465 57.7264 105.082 57.2241 105.1C56.7275 105.121 56.3422 105.541 56.3631 106.037C56.4889 109.017 55.6966 110.454 54.9079 110.528C54.2408 110.584 53.3915 109.735 53.1737 108.245C52.9135 106.459 53.0783 105.26 53.6779 104.577C54.2396 103.937 55.32 103.624 56.8859 103.648C60.3104 103.698 61.0212 106.362 61.0282 106.389L61.0468 106.453C66.8877 124.028 74.1659 130.552 74.4726 130.821C74.6432 130.971 74.8551 131.044 75.0658 131.044Z" fill="#003158"/>
<path d="M67.8371 145.902C68.1474 145.902 68.4489 145.741 68.616 145.453C68.8657 145.024 68.7196 144.473 68.29 144.223C68.226 144.185 61.1888 139.72 55.6931 118.021L55.5359 117.401L54.8991 117.346C54.8921 117.346 53.81 117.236 52.5008 116.581C49.6851 115.173 50.1846 108.99 50.8668 106.649C51.0717 105.946 51.3692 105.476 51.7277 105.29C52.0584 105.118 52.3821 105.224 52.396 105.229C52.8582 105.411 53.3716 105.179 53.5533 104.717C53.7349 104.254 53.498 103.728 53.0352 103.547C52.9304 103.506 51.9821 103.16 50.953 103.666C50.1083 104.08 49.4983 104.915 49.1397 106.146C48.2811 109.089 47.7333 116.21 51.6963 118.191C52.6638 118.675 53.5341 118.917 54.0946 119.034C59.8011 141.154 67.0769 145.601 67.386 145.78C67.5286 145.863 67.684 145.902 67.8371 145.902V145.902Z" fill="#003158"/>
<path d="M55.4471 119.158C56.5758 119.158 57.5188 118.794 58.2575 118.073C59.6819 116.682 60.207 114.06 59.8187 110.28C59.4392 106.588 57.7837 106.005 57.4559 105.926L57.0461 107.624C57.0461 107.624 57.0217 107.622 56.9815 107.604C56.9897 107.608 57.8291 108 58.0817 110.459C58.4036 113.592 58.0334 115.852 57.038 116.824C56.538 117.313 55.8487 117.493 54.9319 117.378C54.4546 117.32 54.0168 117.656 53.9557 118.134C53.8952 118.613 54.234 119.049 54.7124 119.111C54.9657 119.143 55.2107 119.159 55.4482 119.159L55.4471 119.158Z" fill="#003158"/>
<path d="M92.2621 155.99C91.8378 156.87 91.5159 157.78 91.2469 158.712C90.4006 161.618 90.0653 164.714 88.7363 167.652C88.4068 168.38 88.0057 169.01 87.5919 169.541C87.4626 169.707 87.3334 169.863 87.2042 170.01C86.2256 171.12 85.3082 171.674 85.3082 171.674C85.303 171.964 85.282 172.334 85.2687 172.774C85.2104 174.583 85.232 177.613 86.5371 181.392C86.632 181.672 86.7321 181.954 86.8456 182.239C87.7211 184.51 87.1914 191.86 86.2338 193.537C83.4833 198.374 76.5894 197.638 74.6271 194.336C72.8522 191.34 73.5962 185.528 73.9309 183.484C74.0071 183.017 74.063 182.748 74.063 182.748C72.2433 178.94 70.6792 173.826 70.6792 169.994C70.6792 169.994 70.1885 170.076 69.5243 170.084L69.5272 170.21C69.2658 172.581 69.7065 176.629 70.5692 180.33C70.6641 180.738 70.7642 181.144 70.8695 181.543C71.3783 183.462 70.4341 189.534 67.8973 192.551C64.9564 196.054 58.5136 194.829 57.2213 192.216C55.6654 189.078 57.6987 183.808 58.477 182.012C58.651 181.614 58.7616 181.39 58.7616 181.39C55.5175 173.713 55.3277 167.146 55.9029 160.51C56.8104 150.109 60.948 141.92 65.1992 136.281C65.4658 135.928 65.7452 135.582 66.0299 135.242C66.3913 134.812 66.7656 134.393 67.1324 133.992C67.7838 133.285 68.4194 132.631 68.9602 132.056L69.7012 132.684L70.9062 132.963L90.9023 137.621L91.0764 139.968L91.1526 141.02L91.3185 143.28L91.7406 148.958L91.9909 152.355L92.1993 155.145L92.2627 155.989L92.2621 155.99Z" fill="white"/>
<g opacity="0.35">
<path d="M67.8957 192.553C64.956 196.054 58.512 194.832 57.2186 192.217C55.6638 189.079 57.6965 183.809 58.4765 182.013C58.5732 182.061 58.6238 182.076 58.6238 182.076C58.6238 182.076 55.6812 187.519 58.8858 190.436C61.4116 192.738 65.4869 192.009 67.1593 188.952C69.1973 185.222 69.4616 178.521 69.4616 178.521L70.567 180.331C70.6636 180.74 70.7626 181.146 70.8691 181.545C71.3773 183.464 70.432 189.534 67.8963 192.552L67.8957 192.553Z" fill="#003158"/>
</g>
<g opacity="0.3">
<path d="M78.926 184.671L78.7737 184.635C78.8446 184.648 78.8981 184.661 78.926 184.671Z" fill="#293856"/>
</g>
<g opacity="0.3">
<path d="M78.9565 184.678L78.9259 184.67C78.9465 184.676 78.9565 184.678 78.9565 184.678Z" fill="#293856"/>
</g>
<g opacity="0.35">
<path d="M86.2342 193.539C83.4826 198.376 76.5886 197.639 74.6269 194.339C72.8509 191.34 73.5954 185.529 73.9307 183.484L78.7611 184.632C78.0951 184.505 75.9431 184.378 75.8109 187.989C75.7219 190.36 76.1032 192.999 79.2716 193.419C87.0573 194.443 86.4729 186.571 86.1219 182.106C86.0532 181.215 86.2208 181.062 86.5358 181.392C86.6301 181.672 86.7313 181.954 86.8431 182.241C87.7198 184.51 87.1889 191.861 86.2331 193.538L86.2342 193.539Z" fill="#003158"/>
</g>
<g opacity="0.35">
<path d="M72.6637 180.59C72.6637 180.59 74.4438 184.237 79.0925 184.979C79.5442 185.051 79.7497 184.436 79.3463 184.22C77.5383 183.253 74.899 180.809 74.1783 177.472C73.5607 174.612 73.8198 171.818 74.169 169.907C74.4042 168.62 73.4588 167.421 72.152 167.362C69.8032 167.255 66.3961 166.986 64.1567 166.305C62.6537 165.849 61.1012 165.224 59.7775 164.079C59.2396 163.614 58.4066 163.962 58.3629 164.672C58.3199 165.365 58.3763 166.076 58.707 166.435C59.9655 167.798 65.8675 169.498 70.6857 170.502C70.6857 170.502 70.7811 172.693 71.482 175.611C72.2748 178.913 72.6625 180.59 72.6625 180.59L72.6637 180.59Z" fill="#003158"/>
</g>
<g opacity="0.35">
<path d="M69.524 170.213C69.524 170.213 62.555 169.114 59.1758 165.851C59.1758 165.851 59.5088 170.027 65.5266 173.308C68.2166 174.774 69.4245 176.621 70.2365 179.163C70.2365 179.163 69.0909 173.434 69.5246 170.213H69.524Z" fill="#003158"/>
</g>
<path d="M62.7456 195.588C65.1113 195.588 67.2313 194.702 68.5643 193.114C71.3189 189.834 72.2683 183.414 71.7142 181.321C70.6786 177.41 70.1221 172.778 70.3916 170.308C70.444 169.828 70.0976 169.397 69.618 169.345C69.1377 169.293 68.7081 169.639 68.6552 170.119C68.3612 172.818 68.9247 177.609 70.0254 181.768C70.4393 183.331 69.6453 189.112 67.2272 191.991C66.0584 193.383 64.025 194.052 61.7891 193.785C60.023 193.573 58.4653 192.769 58.0002 191.831C56.6049 189.012 58.6417 183.617 59.5439 181.775L59.7192 181.418L59.5643 181.051C56.2311 173.167 56.2527 166.556 56.7719 160.587C57.4885 152.351 59.6691 145.772 63.6321 139.88C63.9011 139.48 63.7951 138.937 63.3952 138.668C62.9947 138.399 62.4522 138.506 62.1832 138.905C58.0479 145.052 55.7759 151.893 55.0326 160.436C54.5011 166.538 54.4755 173.295 57.8058 181.37C57.102 182.92 54.6117 188.92 56.4355 192.606C57.1806 194.111 59.1522 195.227 61.5813 195.519C61.9743 195.566 62.3637 195.59 62.7456 195.59V195.588Z" fill="#003158"/>
<path d="M66.1865 134.877C65.7465 135.143 65.3425 135.44 64.9455 135.746C64.5537 136.055 64.173 136.377 63.808 136.714C63.4436 137.051 63.081 137.394 62.7643 137.777C62.4471 138.16 62.1519 138.566 61.9354 139.034C61.7299 139.479 61.9243 140.005 62.369 140.211C62.7113 140.368 63.1031 140.29 63.3581 140.042L63.3703 140.029C63.7097 139.698 63.9955 139.322 64.2696 138.932C64.545 138.542 64.7871 138.122 65.0334 137.701C65.2796 137.28 65.5165 136.849 65.7459 136.409C65.9706 135.965 66.1918 135.516 66.3769 135.036C66.4031 134.968 66.3693 134.892 66.3018 134.866C66.2622 134.851 66.2197 134.856 66.186 134.876L66.1865 134.877Z" fill="#003158"/>
<path d="M90.4342 154.568L89.7607 156.441L89.8113 155.582C89.979 155.236 90.1821 154.896 90.4336 154.568H90.4342Z" fill="white"/>
<path d="M80.105 197.864C80.1324 197.864 80.1592 197.864 80.1865 197.864C83.1192 197.837 85.6002 196.418 86.9932 193.971C88.0561 192.103 88.64 184.469 87.6591 181.927C85.9523 177.506 86.0868 174.101 86.159 172.272C86.1607 172.23 86.1625 172.188 86.1637 172.148C86.9157 171.597 88.5317 170.226 89.5318 168.014C90.4777 165.921 90.8433 163.521 91.1966 161.2C91.5796 158.687 91.9411 156.312 92.9901 154.716C93.2549 154.313 93.1426 153.771 92.7398 153.506C92.3364 153.242 91.795 153.354 91.5301 153.756C90.2722 155.672 89.8828 158.229 89.47 160.937C89.1342 163.142 88.7872 165.421 87.9403 167.295C86.8622 169.679 84.8714 170.92 84.8516 170.932L84.4447 171.181L84.4325 171.66C84.429 171.817 84.422 171.998 84.4138 172.202C84.3416 174.018 84.1926 177.798 86.0292 182.556C86.8092 184.577 86.2987 191.659 85.475 193.107C84.3981 194.999 82.4643 196.096 80.1702 196.117C78.095 196.143 76.1793 195.242 75.3783 193.893C73.3944 190.552 74.901 183.002 74.9167 182.926L74.9755 182.639L74.8491 182.375C72.8391 178.172 71.6859 173.845 71.6859 170.504C71.6859 170.021 71.2954 169.631 70.8128 169.631C70.3302 169.631 69.9396 170.021 69.9396 170.504C69.9396 174.026 71.1073 178.518 73.15 182.867C72.8711 184.383 71.7698 191.236 73.877 194.784C74.9912 196.66 77.4291 197.864 80.105 197.864V197.864Z" fill="#003158"/>
<path d="M71.0978 169.527C70.6059 169.375 70.1099 169.246 69.6117 169.126C69.1186 168.99 68.6209 168.87 68.1244 168.749C67.1377 168.486 66.1394 168.258 65.1597 167.967C64.1771 167.686 63.1985 167.382 62.2392 167.022C61.2822 166.666 60.3177 166.28 59.4317 165.771L59.4241 165.767C59.3741 165.738 59.3106 165.755 59.2815 165.805C59.2576 165.847 59.2658 165.897 59.2972 165.93C59.6762 166.318 60.0976 166.636 60.529 166.947C60.9592 167.26 61.412 167.536 61.869 167.806C62.7876 168.337 63.7457 168.797 64.7231 169.204C65.6987 169.617 66.6964 169.972 67.7099 170.271C68.2175 170.416 68.7286 170.546 69.2426 170.666C69.7583 170.775 70.2764 170.874 70.798 170.95C71.1962 171.008 71.5664 170.732 71.6246 170.333C71.677 169.973 71.4558 169.635 71.1182 169.532L71.0978 169.525V169.527Z" fill="#003158"/>
<path d="M53.2778 141.121C53.9146 141.121 54.3256 141.03 54.3407 141.027C54.7319 140.935 54.9741 140.543 54.8821 140.152C54.7901 139.761 54.4019 139.519 54.0072 139.611C53.8285 139.651 49.5476 140.542 47.7978 134.764C46.7552 131.323 49.1436 128.163 51.4523 125.107C53.226 122.759 54.9019 120.542 54.9019 118.28C54.9019 117.879 54.5759 117.553 54.1742 117.553C53.7726 117.553 53.4466 117.879 53.4466 118.28C53.4466 120.053 51.9139 122.082 50.2916 124.23C47.8804 127.42 45.1486 131.036 46.4054 135.186C47.9905 140.42 51.507 141.122 53.2784 141.122L53.2778 141.121Z" fill="#003158"/>
<path d="M59.889 158.449C60.8466 158.953 61.9275 159.499 63.1011 160.058C62.3787 159.776 61.7162 159.507 61.1283 159.262C60.6591 159.064 60.2394 158.787 59.889 158.45V158.449Z" fill="white"/>
<path d="M79.2498 184.575C78.6788 184.416 78.1275 184.205 77.6164 183.951C77.1024 183.702 76.6234 183.408 76.1903 183.072C75.7548 182.739 75.3619 182.371 75.0022 181.975C74.916 181.873 74.8118 181.789 74.7321 181.68C74.6488 181.575 74.5615 181.474 74.4719 181.375C74.2955 181.173 74.1453 180.948 73.952 180.749L73.8851 180.68C73.6057 180.391 73.1452 180.384 72.8565 180.663C72.6231 180.889 72.5748 181.235 72.7121 181.511C73.005 182.096 73.3967 182.642 73.8857 183.091C74.3572 183.559 74.9312 183.913 75.5173 184.198C76.1053 184.485 76.731 184.676 77.3603 184.778C77.9913 184.877 78.6252 184.898 79.2504 184.782C79.3075 184.772 79.3453 184.717 79.3348 184.659C79.3273 184.619 79.297 184.588 79.2597 184.577L79.2498 184.574V184.575Z" fill="#003158"/>
<path d="M63.341 183.583C62.2867 183.091 61.3437 182.458 60.5835 181.703C60.1999 181.328 59.864 180.921 59.559 180.501C59.2359 180.09 58.9873 179.637 58.6765 179.201L58.6375 179.147C58.4041 178.819 57.9489 178.742 57.6205 178.975C57.3475 179.17 57.2492 179.518 57.358 179.818C57.5769 180.42 57.8976 180.994 58.3226 181.483C58.7295 181.986 59.2423 182.395 59.7773 182.738C60.3128 183.083 60.8908 183.345 61.4852 183.526C62.0813 183.702 62.689 183.81 63.3089 183.788C63.3671 183.787 63.4125 183.738 63.4108 183.679C63.4096 183.638 63.3846 183.603 63.3503 183.587L63.341 183.583Z" fill="#003158"/>
<path d="M99.8446 180.486C98.22 180.955 91.1915 182.374 91.3842 175.762C91.4238 174.367 91.8773 172.118 91.8458 172.115C91.8144 172.112 88.1139 174.022 87.0673 172.01C86.6877 171.279 86.8036 170.607 87.2047 170.011C87.3129 169.85 87.4445 169.692 87.5923 169.541C88.866 168.244 91.411 167.403 92.4926 167.263C92.4926 167.263 92.4844 167.173 92.4687 167.008C92.3738 165.987 91.978 162.089 91.2474 158.713C90.8516 156.89 90.3585 155.219 89.7625 154.235L90.2794 150.601L90.5192 148.902L91.3184 143.282L91.7218 140.452C91.8144 140.452 98.004 140.478 100.385 147.584C100.391 147.597 100.394 147.61 100.399 147.623C101.823 151.914 102.105 159.836 101.424 170.61C101.232 173.656 103.279 179.49 99.8446 180.487V180.486Z" fill="white"/>
<g opacity="0.35">
<path d="M93.4067 168.085C93.1191 168.288 92.7949 167.792 92.4677 167.006C92.3729 165.986 91.977 162.087 91.2465 158.712C90.4001 161.618 90.0648 164.714 88.7358 167.652C88.4063 168.38 88.0053 169.01 87.5914 169.541C87.4622 169.706 87.3329 169.862 87.2037 170.01C86.2252 171.12 85.3078 171.674 85.3078 171.674C85.3025 171.964 85.2816 172.334 85.2682 172.774L84.2635 172.658C84.2635 172.658 84.1814 170.734 84.4369 168.485C84.5708 167.305 83.7692 166.234 82.6004 166.027C80.6346 165.678 78.1781 164.936 75.2564 163.485C75.2564 163.485 73.7767 159.796 76.8363 158.73C76.8363 158.73 82.1265 162.135 86.8765 161.433C87.7625 159.416 88.5274 156.683 88.0873 152.585C87.7654 149.597 88.7416 149.542 89.7988 150.23C89.9728 150.346 90.1335 150.468 90.279 150.599C91.2971 151.504 91.6638 152.793 92.0172 154.386C92.0672 154.616 92.1307 154.869 92.1994 155.146C92.7611 157.383 93.866 161.067 94.3462 165.144C94.7787 168.823 93.4073 168.085 93.4073 168.085L93.4067 168.085Z" fill="#003158"/>
</g>
<path d="M89.5049 154.391C89.7692 155.441 89.9398 156.497 90.122 157.571L90.4037 159.18L90.6709 160.8L91.1826 164.062C91.3467 165.15 91.4835 166.255 91.5912 167.341L92.3765 166.366C91.9038 166.437 91.5039 166.544 91.0982 166.663C90.6959 166.783 90.3036 166.922 89.9171 167.078C89.1446 167.394 88.3896 167.77 87.6713 168.294C87.3139 168.56 86.9628 168.86 86.6514 169.249C86.3446 169.635 86.0617 170.125 85.968 170.714C85.8737 171.303 86.0082 171.92 86.2521 172.391C86.3842 172.643 86.5554 172.901 86.7859 173.11C87.0123 173.319 87.2766 173.485 87.5456 173.597C88.0875 173.814 88.6102 173.847 89.0829 173.826C89.5567 173.798 89.9968 173.714 90.4171 173.602C90.8374 173.49 91.239 173.35 91.6296 173.192L91.9207 173.069L92.1885 172.948C92.2519 172.917 92.1285 172.994 91.9032 173.016C91.8613 173.456 90.3455 171.623 90.9486 172.11L90.9515 172.058L90.9451 172.105L90.9241 172.238L90.877 172.523C90.7483 173.297 90.6238 174.082 90.5428 174.895C90.5015 175.298 90.4759 175.731 90.487 176.162C90.4893 176.592 90.53 177.031 90.6086 177.472C90.7565 178.349 91.1331 179.262 91.7659 179.999C92.4021 180.735 93.2654 181.235 94.1263 181.495C94.9925 181.77 95.8639 181.846 96.7103 181.843C97.5579 181.832 98.3856 181.736 99.2006 181.569C99.4049 181.526 99.6081 181.481 99.813 181.428C99.9166 181.401 100.015 181.375 100.128 181.341L100.489 181.214C100.968 181.018 101.432 180.689 101.772 180.274C102.115 179.86 102.332 179.389 102.473 178.936C102.613 178.481 102.681 178.035 102.719 177.602C102.793 176.734 102.744 175.914 102.678 175.113C102.608 174.314 102.509 173.535 102.428 172.775C102.349 172.013 102.283 171.276 102.327 170.596L102.46 168.254C102.54 166.692 102.605 165.128 102.64 163.562C102.676 161.995 102.692 160.426 102.662 158.855C102.635 157.284 102.579 155.71 102.446 154.132C102.315 152.555 102.127 150.974 101.797 149.393C101.716 148.998 101.611 148.603 101.514 148.208L101.338 147.617L101.247 147.321L101.136 147.031C100.981 146.645 100.847 146.252 100.672 145.874C100.481 145.501 100.295 145.126 100.095 144.758C99.863 144.405 99.6372 144.048 99.3956 143.702L98.9963 143.206C98.8606 143.042 98.7425 142.864 98.5865 142.717C98.2843 142.417 98.009 142.085 97.6685 141.822L97.1719 141.411C96.9956 141.289 96.8128 141.175 96.6329 141.058C95.9012 140.611 95.1043 140.263 94.2684 140.094C93.8521 140.006 93.4278 139.96 93.0017 139.965C92.5727 139.973 92.1594 140.012 91.7222 140.153C91.5575 140.207 91.4672 140.384 91.5202 140.549C91.5487 140.636 91.6122 140.703 91.6908 140.738L91.7245 140.753C92.426 141.063 93.1105 141.366 93.7538 141.673C93.9138 141.755 94.0774 141.823 94.2346 141.905C94.3894 141.993 94.5484 142.068 94.7049 142.148C94.8592 142.232 95.0053 142.331 95.159 142.414L95.3866 142.543L95.6037 142.69C95.7498 142.786 95.893 142.884 96.0426 142.975L96.4577 143.294C96.7499 143.489 96.9868 143.752 97.2517 143.984C97.5066 144.226 97.718 144.513 97.9508 144.78C98.1574 145.069 98.3431 145.374 98.5428 145.669C99.98 148.158 100.387 151.241 100.654 154.278C100.781 155.804 100.837 157.344 100.864 158.886C100.893 160.427 100.876 161.973 100.842 163.52C100.807 165.066 100.743 166.614 100.665 168.162L100.532 170.483C100.478 171.358 100.56 172.179 100.64 172.965C100.724 173.752 100.82 174.518 100.886 175.27C100.949 176.02 100.988 176.761 100.927 177.446C100.872 178.13 100.701 178.758 100.386 179.127C100.23 179.314 100.042 179.45 99.8019 179.551L99.6121 179.618C99.5394 179.641 99.4491 179.665 99.3647 179.686C99.1936 179.731 99.0161 179.77 98.8397 179.807C97.4257 180.091 95.921 180.167 94.6677 179.78C94.0419 179.59 93.5139 179.265 93.1274 178.822C92.7479 178.374 92.49 177.802 92.38 177.148C92.3229 176.822 92.2892 176.483 92.288 176.135C92.2787 175.787 92.2979 175.442 92.3357 175.071C92.4085 174.335 92.5273 173.58 92.6542 172.82L92.7025 172.529L92.7269 172.373L92.7403 172.275C92.7426 172.246 92.7461 172.246 92.7502 172.15C93.3521 172.63 91.8421 170.769 91.7845 171.221C91.5481 171.247 91.4131 171.329 91.4655 171.303L91.2006 171.422L90.9538 171.526C90.6238 171.66 90.2879 171.776 89.9561 171.865C89.6243 171.954 89.2954 172.013 88.9915 172.03C88.6888 172.046 88.4181 172.01 88.2348 171.935C88.0561 171.853 87.9571 171.765 87.8605 171.581C87.7504 171.359 87.7243 171.179 87.7475 170.996C87.7947 170.629 88.1963 170.131 88.7406 169.745C89.2808 169.349 89.927 169.019 90.5947 168.748C90.9294 168.612 91.2722 168.492 91.6157 168.389C91.9556 168.286 92.3125 168.199 92.6111 168.163L93.4691 168.058L93.3963 167.188C93.302 166.052 93.1839 164.941 93.0616 163.818C92.9382 162.698 92.777 161.58 92.5663 160.468L92.3986 159.634L92.2007 158.804C92.1372 158.528 92.0639 158.251 91.9818 157.976C91.9009 157.701 91.8252 157.428 91.7234 157.156C91.625 156.884 91.526 156.613 91.4166 156.345C91.2914 156.079 91.1739 155.812 91.0435 155.552C90.9038 155.292 90.7477 155.034 90.5894 154.787C90.4241 154.538 90.2157 154.303 90.0201 154.083C89.9089 153.957 89.7168 153.946 89.5911 154.057C89.5038 154.135 89.4718 154.251 89.4979 154.358L89.5067 154.393L89.5049 154.391Z" fill="#003158"/>
<g opacity="0.35">
<path d="M99.8415 180.487C98.2203 180.957 91.1896 182.375 91.3828 175.763C91.4009 175.166 91.4591 174.511 91.533 173.913C92.8596 177.882 98.654 178.11 99.7274 177.124C101.155 175.813 101.088 172.829 101.271 171.588C101.597 174.44 102.276 179.78 99.8415 180.487V180.487Z" fill="#003158"/>
</g>
<g opacity="0.35">
<path d="M58.1656 152.503C59.6703 149.594 60.721 146.78 61.4487 144.205C60.891 145.646 60.2332 147.133 59.4491 148.648C58.5311 150.425 57.782 152.351 57.3058 154.33C57.5707 153.707 57.8594 153.097 58.1656 152.503V152.503Z" fill="#003158"/>
</g>
<path d="M58.395 153.885C56.8194 153.885 55.5421 152.607 55.5421 151.032C55.5421 149.456 56.8194 148.179 58.395 148.179C59.9706 148.179 61.2479 149.456 61.2479 151.032C61.2479 152.607 59.9706 153.885 58.395 153.885Z" fill="white"/>
<g opacity="0.35">
<path d="M55.6867 150.138C55.1937 151.635 56.0057 153.248 57.5023 153.741C58.9989 154.234 60.6131 153.42 61.1062 151.924C61.2424 151.511 61.2796 151.086 61.2272 150.68C60.4909 151.452 59.347 151.779 58.266 151.423C57.1851 151.067 56.4603 150.124 56.3288 149.066C56.0453 149.362 55.8229 149.725 55.6867 150.138Z" fill="#003158"/>
</g>
<path d="M58.3981 154.786C58.9773 154.786 59.5519 154.65 60.0839 154.382C60.9792 153.931 61.6445 153.158 61.9583 152.206C62.2721 151.254 62.1964 150.237 61.7447 149.342C61.2935 148.447 60.5205 147.781 59.5687 147.467C57.603 146.82 55.4777 147.892 54.8298 149.857C54.1825 151.822 55.2547 153.948 57.2193 154.596C57.6059 154.724 58.0023 154.786 58.3975 154.786L58.3981 154.786ZM58.3958 149.078C58.5978 149.078 58.8033 149.11 59.0053 149.177C59.5006 149.34 59.9029 149.686 60.1381 150.152C60.3726 150.618 60.4122 151.147 60.2486 151.643C60.0857 152.138 59.7393 152.541 59.2736 152.775C58.8073 153.01 58.2782 153.049 57.7828 152.886C56.76 152.549 56.2024 151.443 56.5389 150.42C56.8095 149.6 57.575 149.078 58.3952 149.078H58.3958Z" fill="#003158"/>
<path d="M59.0048 158.684L73.0232 164.246C74.6822 164.905 76.5799 164.086 77.2394 162.425L80.1989 154.966C80.7758 153.511 80.2193 151.876 78.9567 151.05C78.7785 150.932 78.5847 150.831 78.378 150.749L64.362 145.188C62.7006 144.528 60.8035 145.347 60.1457 147.009L57.8004 152.917L57.1839 154.468C56.5244 156.129 57.3458 158.025 59.0048 158.684Z" fill="white"/>
<g opacity="0.35">
<path d="M59.0048 158.684L73.0232 164.246C74.6822 164.905 76.5799 164.086 77.2394 162.425L80.1989 154.966C80.7758 153.512 80.2193 151.876 78.9567 151.05C77.9508 151.263 77.311 151.4 77.311 151.4C74.2526 157.117 71.363 159.427 63.8788 156.598C60.6487 155.376 58.8168 154.083 57.7998 152.917L57.1834 154.468C56.5238 156.129 57.3452 158.025 59.0042 158.684H59.0048Z" fill="#003158"/>
</g>
<path d="M74.2147 165.203C75.7975 165.203 77.2964 164.252 77.9146 162.694L80.8752 155.233C81.2653 154.25 81.2478 153.17 80.8264 152.193C80.4043 151.215 79.6301 150.463 78.6463 150.072L64.6291 144.51C63.6459 144.12 62.5655 144.137 61.5887 144.559C60.6114 144.981 59.8587 145.755 59.4681 146.739L56.5075 154.2C56.1175 155.183 56.1343 156.263 56.5564 157.24C56.9784 158.218 57.7526 158.97 58.7364 159.361L72.7536 164.923C73.2333 165.113 73.7275 165.203 74.2147 165.203ZM63.1703 145.686C63.4829 145.686 63.7949 145.745 64.0924 145.863L78.1096 151.425C78.7319 151.672 79.2221 152.15 79.4898 152.77C79.7576 153.39 79.7692 154.074 79.5224 154.696L76.5618 162.157C76.0495 163.449 74.5809 164.083 73.2903 163.57L59.2731 158.008C58.6508 157.761 58.1607 157.283 57.8929 156.663C57.6251 156.043 57.6135 155.359 57.8603 154.737L60.8209 147.276C61.0677 146.653 61.5451 146.163 62.1656 145.895C62.4892 145.756 62.8298 145.686 63.1703 145.686Z" fill="#003158"/>
<path d="M58.4636 158.405C58.6301 158.515 58.81 158.607 59.0044 158.683L73.0228 164.245C74.2388 164.727 75.5818 164.417 76.473 163.561C76.7972 163.25 77.0621 162.867 77.2367 162.424L78.5529 159.11L78.9871 158.017L80.1979 154.964C80.8574 153.303 80.0361 151.407 78.3771 150.748L75.3478 149.547C76.6395 150.365 77.2146 152.017 76.6325 153.487L75.0346 157.516L73.6719 160.949C73.0129 162.608 71.1146 163.428 69.4556 162.769L58.463 158.405H58.4636Z" fill="white"/>
<g opacity="0.35">
<path d="M58.4638 158.405C58.6303 158.515 58.8102 158.608 59.0046 158.683L73.023 164.245C74.682 164.904 76.5797 164.085 77.2369 162.424L78.9873 158.017C78.3255 158.655 77.3132 159.36 76.2596 159.058C75.6809 158.894 75.2927 158.276 75.0348 157.516L73.6721 160.948C73.0131 162.607 71.1149 163.428 69.4558 162.769L58.4632 158.404L58.4638 158.405Z" fill="#003158"/>
</g>
<path d="M74.2125 165.204C74.7486 165.204 75.2847 165.094 75.7935 164.874C76.7709 164.451 77.5241 163.677 77.9136 162.693L80.8736 155.233C81.2642 154.25 81.2467 153.17 80.8247 152.192C80.4027 151.215 79.6285 150.462 78.6453 150.071L75.6171 148.87L74.9593 150.161C75.9821 150.81 76.4012 152.096 75.9553 153.219L72.9947 160.679C72.7485 161.302 72.2706 161.792 71.6506 162.06C71.0307 162.328 70.3473 162.34 69.725 162.093L58.7306 157.729L58.0665 159.016C58.2784 159.153 58.5048 159.269 58.74 159.361L72.7537 164.922C73.2246 165.109 73.7183 165.202 74.2119 165.202L74.2125 165.204ZM77.4199 151.151L78.1091 151.424C78.7314 151.671 79.2216 152.15 79.4899 152.77C79.7577 153.39 79.7693 154.074 79.5219 154.696L76.5613 162.157C76.3151 162.779 75.8372 163.269 75.2172 163.538C74.5973 163.805 73.9139 163.817 73.2916 163.57L72.5121 163.261C73.3515 162.819 73.9977 162.103 74.3487 161.216L77.3087 153.756C77.6481 152.899 77.6702 151.984 77.4199 151.151Z" fill="#003158"/>
<path d="M69.6016 155.085C69.4939 155.362 69.0113 157.745 69.0113 157.745C69.0113 157.745 69.7186 158.021 70.5865 158.36C71.671 158.783 72.9889 158.003 73.5291 156.618C74.0693 155.232 73.6286 153.766 72.5436 153.343C71.8113 153.057 70.9684 152.728 70.9684 152.728C70.9684 152.728 69.7768 154.634 69.601 155.085H69.6016Z" fill="#22A7F0"/>
<g opacity="0.35">
<path d="M69.602 155.085C69.4943 155.362 69.0117 157.745 69.0117 157.745C69.0117 157.745 69.719 158.021 70.5869 158.36C71.6714 158.783 72.9893 158.003 73.5295 156.618C74.0697 155.232 73.629 153.766 72.544 153.343C71.8117 153.057 70.9688 152.728 70.9688 152.728C70.9688 152.728 69.7772 154.634 69.6014 155.085H69.602Z" fill="#003158"/>
</g>
<path d="M70.905 158.62C72.0092 158.62 73.1368 157.787 73.6444 156.485C73.9413 155.725 73.9867 154.914 73.7724 154.203C73.5466 153.453 73.0634 152.9 72.4109 152.645L71.3113 152.216C70.8386 152.032 70.3013 152.212 70.0359 152.645C69.388 153.7 69.0067 154.37 68.9031 154.636C68.8757 154.706 68.8029 154.892 68.3961 156.86C68.2924 157.362 68.5643 157.862 69.0422 158.048L70.1366 158.475C70.3857 158.572 70.6447 158.619 70.905 158.619V158.62ZM70.9294 153.018C70.9509 153.018 70.9725 153.022 70.9934 153.03L72.093 153.459C72.49 153.614 72.7892 153.968 72.9359 154.455C73.0943 154.98 73.057 155.588 72.8306 156.168C72.3783 157.327 71.3113 157.997 70.4532 157.662L69.3589 157.235C69.2785 157.204 69.2331 157.121 69.25 157.036C69.6167 155.263 69.7023 154.989 69.7157 154.952C69.7966 154.746 70.1942 154.054 70.7792 153.101C70.8118 153.048 70.8694 153.017 70.9288 153.017L70.9294 153.018Z" fill="#003158"/>
<path d="M68.7282 157.466C67.6434 157.043 67.2021 155.577 67.7426 154.191C68.2831 152.806 69.6006 152.025 70.6854 152.449C71.7703 152.872 72.2116 154.338 71.6711 155.724C71.1306 157.109 69.813 157.889 68.7282 157.466Z" fill="#22A7F0"/>
<g opacity="0.35">
<path d="M71.5674 153.225C71.5313 153.47 71.4679 153.719 71.3718 153.966C70.8311 155.351 69.5138 156.131 68.4293 155.708C68.0474 155.559 67.747 155.278 67.5392 154.92C67.3727 156.053 67.8285 157.106 68.7203 157.454C69.8048 157.877 71.1227 157.097 71.6629 155.712C72.0128 154.814 71.9493 153.885 71.5674 153.225Z" fill="#003158"/>
</g>
<g opacity="0.6">
<path d="M68.0255 155.053C68.5663 153.667 69.8836 152.887 70.9681 153.311C71.3528 153.461 71.655 153.744 71.8628 154.106C71.7533 153.334 71.3342 152.694 70.677 152.437C69.5925 152.014 68.2746 152.794 67.7344 154.18C67.3857 155.073 67.4475 155.999 67.8252 156.658C67.7542 156.156 67.8124 155.598 68.0255 155.053Z" fill="white"/>
</g>
<path d="M69.3294 158.005C70.4337 158.005 71.5613 157.172 72.0689 155.871C72.6958 154.263 72.1422 152.541 70.8354 152.031C69.5279 151.521 67.9545 152.414 67.3276 154.021C67.0307 154.781 66.9853 155.592 67.1995 156.303C67.4254 157.054 67.9085 157.606 68.561 157.861C68.8102 157.958 69.0692 158.005 69.3294 158.005ZM70.0542 152.758C70.2119 152.758 70.3685 152.786 70.5181 152.844C71.3767 153.179 71.7074 154.395 71.2556 155.554C70.8033 156.713 69.7369 157.383 68.8783 157.047C68.4813 156.892 68.1821 156.539 68.0354 156.052C67.8771 155.526 67.9143 154.918 68.1408 154.338C68.5145 153.381 69.3062 152.758 70.0542 152.758Z" fill="#003158"/>
<path d="M63.3837 161.087C63.6794 161.087 63.9576 160.906 64.0659 160.612L65.8379 155.818C66.0218 155.32 65.9444 154.766 65.6306 154.338L64.3762 152.624C64.3512 152.589 64.3453 152.545 64.361 152.506L66.8467 146.177C66.9934 145.803 66.8094 145.381 66.4351 145.233C66.0614 145.087 65.6388 145.271 65.4915 145.645L63.0053 151.974C62.8068 152.48 62.8796 153.044 63.2009 153.484L64.4559 155.198C64.4804 155.232 64.4868 155.276 64.4722 155.315L62.7003 160.107C62.5611 160.484 62.7533 160.903 63.1305 161.042C63.2137 161.073 63.2993 161.088 63.3831 161.088L63.3837 161.087Z" fill="#003158"/>
<path d="M90.7018 158.063C90.7018 158.063 91.6774 159.451 91.2868 161.098C90.8351 163.001 89.5026 163.473 89.5026 163.473C89.5026 163.473 83.8637 164.835 76.4569 161.02C76.4569 161.02 74.9784 157.331 78.0397 156.266C78.0397 156.266 86.0356 159.639 90.7012 158.063L90.7018 158.063Z" fill="white"/>
<g opacity="0.35">
<path d="M91.2862 161.099C90.835 163 89.5032 163.472 89.5032 163.472C89.5032 163.472 83.8648 164.836 76.4563 161.02C76.4563 161.02 75.9708 159.804 76.1344 158.57C76.1554 158.639 76.1711 158.675 76.1711 158.675C81.5847 161.465 86.0542 161.487 88.0665 161.296C89.4648 161.164 90.6459 160.173 90.9864 158.811C90.9911 158.792 90.9957 158.773 91.0004 158.754C91.0085 158.723 91.0161 158.691 91.019 158.659C91.2617 159.218 91.5202 160.112 91.2856 161.099L91.2862 161.099Z" fill="#003158"/>
</g>
<path d="M86.832 164.615C88.5649 164.615 89.6133 164.373 89.714 164.348L89.8031 164.322C90.4696 164.086 91.7165 163.184 92.1624 161.305C92.6408 159.288 91.4871 157.616 91.4376 157.546L91.0505 156.995L90.4131 157.211C86.127 158.658 78.4658 155.469 78.389 155.437L78.0706 155.303L77.7434 155.417C76.7195 155.773 75.9628 156.434 75.5564 157.327C74.7549 159.086 75.5303 161.129 75.6211 161.356L75.7462 161.667L76.0443 161.821C80.5172 164.125 84.3667 164.615 86.8314 164.615L86.832 164.615ZM89.2279 162.612C88.6115 162.734 83.6111 163.578 77.1922 160.384C77.0286 159.815 76.8575 158.806 77.1974 158.067C77.3633 157.706 77.641 157.433 78.0409 157.238C79.5969 157.852 85.8342 160.135 90.2402 159.127C90.4131 159.561 90.5738 160.206 90.4114 160.89C90.125 162.099 89.4119 162.522 89.2279 162.612Z" fill="#003158"/>
<path d="M64.1577 179.995C66.0489 179.995 68.1672 179.511 70.3368 178.107C70.6069 177.933 70.6843 177.572 70.5097 177.302C70.335 177.033 69.9741 176.955 69.7046 177.129C63.4306 181.188 57.6473 176.726 57.5897 176.681C57.3371 176.481 56.9715 176.524 56.7724 176.777C56.5733 177.029 56.6158 177.395 56.8685 177.594C56.9127 177.629 59.9793 179.995 64.1577 179.995Z" fill="#003158"/>
<path d="M79.3112 179.846C81.3608 179.846 83.6252 179.356 85.8524 177.915C86.1225 177.741 86.1999 177.38 86.0253 177.11C85.8507 176.841 85.4903 176.763 85.2202 176.937C78.9165 181.016 72.2607 176.696 72.1949 176.652C71.9271 176.475 71.5656 176.548 71.3881 176.816C71.2105 177.083 71.2839 177.445 71.5517 177.622C71.6011 177.655 74.978 179.846 79.3118 179.846H79.3112Z" fill="#003158"/>
<path d="M92.0301 163.842C92.0941 163.842 92.1599 163.831 92.2239 163.808C92.2874 163.786 98.598 161.588 101.394 163.723C101.65 163.918 102.015 163.868 102.21 163.613C102.405 163.358 102.356 162.993 102.101 162.797C98.8041 160.281 92.118 162.611 91.8351 162.712C91.5324 162.819 91.374 163.152 91.4811 163.455C91.5661 163.693 91.7902 163.842 92.0301 163.842Z" fill="#003158"/>
<path d="M57.1138 124.862C65.4124 124.862 66.8322 117.184 66.8461 117.104C66.9009 116.788 66.6884 116.486 66.3717 116.432C66.0516 116.375 65.7541 116.59 65.6994 116.906C65.647 117.203 64.3506 124.033 56.5375 123.685C56.5288 123.685 56.5201 123.685 56.5108 123.685C56.2017 123.685 55.9438 123.928 55.9298 124.24C55.9153 124.562 56.1638 124.834 56.4851 124.848C56.6988 124.858 56.9095 124.862 57.1144 124.862H57.1138Z" fill="#003158"/>
<g opacity="0.35">
<path d="M100.385 147.582C98.6493 148.268 96.8139 148.709 94.9278 148.866C93.9231 148.951 92.8573 148.99 91.739 148.959C91.338 148.948 90.9322 148.93 90.5178 148.901C86.9599 148.65 82.9486 147.69 78.7713 145.438C72.8478 142.238 69.2771 137.892 67.1303 133.992C67.7816 133.285 68.4173 132.631 68.9581 132.056L69.6991 132.684L70.9041 132.963L90.9002 137.621L91.0743 139.968L91.1505 141.02L91.3164 143.28L91.7198 140.451C91.8124 140.451 98.002 140.477 100.383 147.582H100.385Z" fill="#003158"/>
</g>
<path d="M65.4549 113.896C65.0526 118.592 65.8222 123.409 67.8543 127.888C68.2694 128.801 68.7339 129.699 69.2526 130.578C69.5035 131.007 69.7712 131.432 70.0483 131.856C70.8906 133.126 71.8174 134.305 72.8192 135.392C73.6801 136.331 74.5981 137.199 75.5586 137.997C76.7187 138.961 77.947 139.821 79.2271 140.575C79.6945 140.849 80.1683 141.109 80.6474 141.356C89.4286 145.863 100.319 145.623 109.13 139.781C122.112 131.178 125.659 113.681 117.058 100.7C115.399 98.2013 113.413 96.0469 111.189 94.2692C110.931 94.059 110.666 93.8553 110.397 93.6574C109.682 93.1236 108.945 92.627 108.189 92.1683C106.44 91.1083 104.588 90.2491 102.674 89.5971C100.761 88.944 98.7814 88.4975 96.7771 88.2664C96.1397 88.1925 95.5 88.1395 94.8568 88.1099C93.8928 88.0656 92.9265 88.0679 91.9561 88.1244C87.1257 88.391 82.3 89.9068 77.9761 92.7737C70.5082 97.7223 66.1639 105.613 65.4549 113.894V113.896Z" fill="white"/>
<path d="M93.544 144.556C99.017 144.556 104.468 142.975 109.177 139.853C122.176 131.238 125.743 113.654 117.129 100.654C115.494 98.1894 113.513 96.0193 111.243 94.2031C110.997 94.0029 110.73 93.7962 110.448 93.5896C109.735 93.0575 108.99 92.5546 108.234 92.0959C106.497 91.0428 104.636 90.1755 102.702 89.5171C100.788 88.8634 98.7987 88.414 96.7875 88.1829C96.1431 88.1084 95.4952 88.0554 94.8613 88.0258C93.8752 87.9803 92.8967 87.9856 91.9519 88.0403C86.9649 88.3156 82.1159 89.9281 77.9294 92.7042C70.6897 97.5008 66.1119 105.222 65.3698 113.889C64.9588 118.694 65.7912 123.547 67.7768 127.924C68.1971 128.85 68.6692 129.758 69.1791 130.622C69.4096 131.016 69.671 131.435 69.9766 131.902C70.8096 133.159 71.7445 134.353 72.7562 135.45C73.602 136.372 74.5264 137.251 75.5043 138.062C76.6476 139.013 77.8857 139.883 79.1839 140.649C79.649 140.921 80.128 141.184 80.6083 141.432C84.679 143.521 89.1188 144.556 93.5445 144.556H93.544ZM93.5341 88.166C93.9706 88.166 94.4107 88.1759 94.8526 88.1963C95.4824 88.2254 96.1262 88.2778 96.7671 88.3523C98.7661 88.5828 100.744 89.0287 102.646 89.679C104.569 90.3332 106.418 91.1954 108.144 92.242C108.896 92.6978 109.637 93.1972 110.347 93.727C110.626 93.9324 110.891 94.1373 111.135 94.3364C113.392 96.1416 115.361 98.2989 116.987 100.749C125.548 113.67 122.003 131.149 109.083 139.711C100.616 145.325 89.7352 145.926 80.6863 141.281C80.209 141.035 79.7322 140.772 79.27 140.502C77.98 139.741 76.7495 138.877 75.6132 137.932C74.6416 137.125 73.7225 136.251 72.8819 135.335C71.8766 134.244 70.947 133.058 70.1192 131.809C69.8153 131.345 69.5557 130.929 69.3264 130.536C68.8188 129.676 68.3502 128.774 67.9322 127.854C65.9583 123.503 65.1311 118.68 65.5403 113.904C66.2779 105.29 70.8276 97.6149 78.0237 92.8474C82.1846 90.0882 87.0045 88.4856 91.9612 88.212C92.477 88.1818 93.0026 88.1672 93.5346 88.1672L93.5341 88.166Z" fill="#003158"/>
<g opacity="0.35">
<path d="M109.13 139.781C100.319 145.624 89.4264 145.864 80.6464 141.356C80.1667 141.109 79.6935 140.849 79.2266 140.575C77.946 139.821 76.7183 138.961 75.5581 137.997C74.5977 137.199 73.6791 136.33 72.8187 135.392C71.8163 134.306 70.8896 133.127 70.0467 131.856C69.7714 131.432 69.503 131.007 69.251 130.579C68.7323 129.699 68.2695 128.801 67.8539 127.887C65.8217 123.407 65.051 118.592 65.4544 113.895C65.675 111.315 66.249 108.771 67.1606 106.343C66.8789 110.833 67.6694 115.413 69.6078 119.687C70.0211 120.601 70.4862 121.498 71.0049 122.378C71.2552 122.806 71.5235 123.23 71.8006 123.655C72.6435 124.926 73.5702 126.105 74.5709 127.191C75.433 128.129 76.3498 128.997 77.3103 129.796C78.471 130.759 79.7005 131.62 80.9788 132.374C81.4474 132.648 81.9206 132.908 82.4003 133.154C91.1803 137.662 102.071 137.422 110.884 131.58C116.025 128.173 119.685 123.369 121.697 118.006C121.168 126.526 116.793 134.703 109.13 139.78V139.781Z" fill="#003158"/>
</g>
<path d="M93.5438 145.129C99.128 145.129 104.688 143.516 109.494 140.33C122.756 131.542 126.395 113.6 117.607 100.337C115.938 97.8221 113.918 95.6078 111.601 93.7549C111.352 93.5518 111.077 93.3393 110.788 93.1268C110.063 92.586 109.303 92.0732 108.531 91.6052C106.758 90.5306 104.859 89.6452 102.887 88.974C100.935 88.3069 98.9044 87.8488 96.8531 87.6125C96.1959 87.5362 95.5346 87.4827 94.8879 87.4524C93.8814 87.4064 92.8831 87.4117 91.9185 87.4675C86.8314 87.7481 81.8835 89.3937 77.6125 92.2257C70.2267 97.1195 65.5564 104.997 64.7991 113.839C64.3794 118.741 65.2287 123.694 67.255 128.159C67.684 129.104 68.1649 130.03 68.6858 130.912C68.9204 131.313 69.1865 131.74 69.4979 132.215C70.3495 133.5 71.3036 134.717 72.3357 135.837C73.1984 136.778 74.142 137.675 75.1391 138.502C76.3057 139.473 77.5689 140.361 78.8938 141.141C79.3688 141.419 79.8572 141.688 80.3467 141.94C84.5001 144.072 89.0307 145.127 93.5455 145.127L93.5438 145.129ZM93.5344 88.7389C93.9623 88.7389 94.3937 88.7488 94.8267 88.7686C95.4432 88.7971 96.0736 88.8483 96.7011 88.9211C98.6599 89.1463 100.597 89.5841 102.461 90.2203C104.344 90.8612 106.156 91.7059 107.847 92.731C108.583 93.1775 109.309 93.6664 110.004 94.1851C110.279 94.3871 110.537 94.5862 110.774 94.7794C112.989 96.5508 114.917 98.6645 116.51 101.065C124.897 113.722 121.423 130.844 108.767 139.232C100.473 144.73 89.8136 145.32 80.9486 140.77C80.4812 140.529 80.0137 140.271 79.5603 140.006C78.2983 139.262 77.0933 138.415 75.9803 137.49C75.0285 136.7 74.1286 135.843 73.3049 134.946C72.3194 133.876 71.4084 132.714 70.5975 131.49C70.3006 131.037 70.0462 130.628 69.8215 130.245C69.3238 129.401 68.864 128.516 68.4547 127.615C66.5216 123.354 65.7113 118.629 66.1117 113.951C66.8341 105.512 71.2914 97.9933 78.3408 93.3224C82.4167 90.6197 87.1376 89.0491 91.9936 88.7814C92.4995 88.7523 93.0146 88.7377 93.5356 88.7377L93.5344 88.7389Z" fill="#003158"/>
<path d="M93.5449 145.32C99.1651 145.32 104.764 143.696 109.6 140.49C122.95 131.642 126.613 113.583 117.767 100.232C116.087 97.7007 114.053 95.4718 111.72 93.6061C111.47 93.4024 111.192 93.1876 110.901 92.9734C110.172 92.4297 109.407 91.9133 108.63 91.4424C106.846 90.3608 104.934 89.4696 102.948 88.7932C100.983 88.122 98.9399 87.661 96.8745 87.4229C96.2133 87.3461 95.5473 87.2919 94.8965 87.2617C93.8836 87.2157 92.8783 87.2203 91.9074 87.2768C86.7871 87.5597 81.806 89.2158 77.5071 92.0664C70.0724 96.9928 65.3706 104.922 64.6087 113.823C64.186 118.758 65.0412 123.743 67.0809 128.239C67.5128 129.189 67.9971 130.122 68.521 131.01C68.7574 131.413 69.0246 131.843 69.3377 132.321C70.1958 133.615 71.1557 134.84 72.1947 135.968C73.0627 136.913 74.0127 137.817 75.0162 138.651C76.1909 139.627 77.4629 140.521 78.7959 141.307C79.2744 141.587 79.7657 141.857 80.2582 142.111C84.44 144.257 88.9991 145.319 93.5449 145.319V145.32ZM93.535 88.93C93.9599 88.93 94.3883 88.9399 94.8185 88.9597C95.4297 88.9882 96.0561 89.0389 96.6795 89.111C98.6244 89.3352 100.549 89.7694 102.399 90.4016C104.27 91.0384 106.069 91.8772 107.748 92.8948C108.478 93.3378 109.199 93.8238 109.889 94.3384C110.163 94.5392 110.418 94.7366 110.653 94.9275C112.854 96.6878 114.768 98.7863 116.35 101.17C124.679 113.74 121.23 130.743 108.661 139.073C100.425 144.533 89.8397 145.118 81.0353 140.6C80.5713 140.361 80.1068 140.105 79.6562 139.842C78.4035 139.103 77.2067 138.262 76.1019 137.343C75.1565 136.558 74.263 135.709 73.4451 134.817C72.466 133.755 71.562 132.601 70.7563 131.386C70.4618 130.936 70.2086 130.53 69.9856 130.149C69.4908 129.311 69.0345 128.432 68.6276 127.536C66.7078 123.305 65.9033 118.613 66.3009 113.968C67.0186 105.588 71.445 98.121 78.4449 93.4827C82.4929 90.7986 87.1812 89.2391 92.0028 88.9731C92.5052 88.944 93.0169 88.9294 93.5344 88.9294L93.535 88.93Z" fill="#003158"/>
<path d="M65.7667 121.115C73.2247 139.837 96.5214 145.31 108.462 129.315C116.585 118.433 112.202 102.077 101.251 94.9448C93.2808 89.7535 83.2283 88.1719 71.7892 98.3397C71.7892 98.3397 67.4205 103.623 66.4705 108.428C65.5205 113.234 65.4075 118.068 65.4075 118.068L65.7667 121.115Z" fill="#003158"/>
<path d="M108.461 129.315C96.5213 145.309 73.2241 139.836 65.7661 121.115L65.6939 120.497C79.097 133.197 100.21 134.058 112.583 118.111C112.284 122.078 110.967 125.957 108.461 129.315Z" fill="#220F2D"/>
<path d="M90.3844 142.408C91.5137 142.408 92.6406 142.335 93.7571 142.189C100.803 141.264 106.913 137.579 111.428 131.531C115.583 125.967 117.147 118.836 115.833 111.453C114.403 103.42 109.658 96.0877 103.136 91.8406C99.4752 89.4563 95.7509 87.9614 92.0673 87.3974L91.9916 87.3857L91.9153 87.3898C86.8125 87.6716 81.8518 89.3213 77.5692 92.1608C70.163 97.068 65.4799 104.967 64.7208 113.832C64.2999 118.748 65.1516 123.714 67.1832 128.191C67.6133 129.138 68.0959 130.067 68.6175 130.952C68.8526 131.353 69.1193 131.781 69.4313 132.258C70.2852 133.546 71.2416 134.767 72.2766 135.89L72.3616 135.969C77.6484 140.143 84.0626 142.408 90.3838 142.408L90.3844 142.408ZM91.92 88.8649C95.3707 89.4057 98.8733 90.8219 102.332 93.0747C108.519 97.1041 113.024 104.071 114.384 111.712C115.625 118.689 114.157 125.416 110.248 130.651C105.977 136.372 100.208 139.857 93.565 140.729C86.6117 141.642 79.234 139.5 73.3204 134.85C72.3535 133.796 71.4593 132.653 70.6613 131.449C70.365 130.997 70.1112 130.589 69.8871 130.207C69.3905 129.365 68.9324 128.483 68.5238 127.584C66.5964 123.335 65.7884 118.624 66.1877 113.959C66.9084 105.544 71.3528 98.0471 78.3818 93.3896C82.4252 90.7084 87.1042 89.1449 91.9194 88.8661L91.92 88.8649Z" fill="#003158"/>
<path d="M107.594 140.279C104.193 138.085 103.884 132.513 106.904 127.833C109.923 123.153 115.127 121.138 118.528 123.332C121.928 125.526 122.237 131.098 119.217 135.778C116.198 140.457 110.994 142.472 107.594 140.279Z" fill="white"/>
<path d="M110.687 141.998C114.171 141.998 118.041 139.56 120.328 135.572C122.062 132.548 122.587 129.229 121.767 126.465C121.205 124.566 120.059 123.128 118.454 122.304C114.453 120.252 108.77 122.816 105.785 128.022C104.051 131.046 103.526 134.366 104.345 137.129C104.907 139.028 106.053 140.467 107.659 141.29C108.594 141.77 109.623 141.998 110.687 141.998V141.998ZM118.853 134.727C116.314 139.156 111.639 141.424 108.434 139.778C107.252 139.171 106.401 138.089 105.974 136.647C105.296 134.36 105.776 131.452 107.258 128.867C109.799 124.438 114.473 122.172 117.678 123.816C118.86 124.422 119.71 125.505 120.138 126.947C120.815 129.234 120.335 132.142 118.853 134.726L118.853 134.727Z" fill="#003158"/>
<path d="M110.114 140.264C107.406 138.382 107.256 133.914 109.779 130.285C112.301 126.656 116.541 125.239 119.248 127.121C121.956 129.002 122.106 133.47 119.584 137.099C117.061 140.729 112.821 142.145 110.114 140.264Z" fill="white"/>
<path d="M112.898 141.193C114.634 141.193 116.478 140.411 118.063 138.98C121.304 136.054 122.435 131.306 120.584 128.398C119.817 127.193 118.655 126.453 117.225 126.259C115.281 125.997 113.126 126.784 111.311 128.423C108.07 131.349 106.94 136.097 108.79 139.006C109.557 140.21 110.719 140.95 112.15 141.144C112.396 141.177 112.646 141.193 112.898 141.193ZM116.475 126.386C116.719 126.386 116.961 126.403 117.2 126.435C118.578 126.621 119.696 127.333 120.434 128.492C122.241 131.331 121.124 135.977 117.945 138.848C116.169 140.451 114.067 141.224 112.174 140.968C110.796 140.781 109.677 140.069 108.94 138.91C107.133 136.071 108.25 131.425 111.429 128.555C112.982 127.154 114.783 126.386 116.475 126.386Z" fill="#003158"/>
<g opacity="0.35">
<path d="M108.109 133.837C108.52 132.377 109.332 131.025 110.378 129.917C109.721 133.325 111.645 135.971 114.898 135.951C117 135.939 119.174 134.814 120.791 133.099C120.751 133.315 120.698 133.534 120.636 133.755C119.588 137.472 115.934 140.503 112.475 140.525C109.015 140.547 107.062 137.551 108.109 133.837Z" fill="#003158"/>
</g>
<path d="M112.604 141.815C115.358 141.815 118.463 139.764 120.41 136.398C121.879 133.86 122.362 131.03 121.704 128.826C121.284 127.42 120.44 126.364 119.261 125.771C116.135 124.198 111.727 126.353 109.226 130.675C107.758 133.212 107.274 136.043 107.932 138.248C108.352 139.653 109.197 140.709 110.375 141.302C111.066 141.65 111.821 141.815 112.604 141.815V141.815ZM117.031 126.731C117.59 126.731 118.119 126.845 118.599 127.087C119.406 127.493 119.992 128.239 120.293 129.247C120.837 131.07 120.404 133.467 119.136 135.66C117.06 139.247 113.429 141.188 111.037 139.985C110.23 139.58 109.644 138.833 109.343 137.826C108.799 136.003 109.232 133.605 110.501 131.412C112.16 128.545 114.813 126.73 117.031 126.73V126.731Z" fill="#003158"/>
<g opacity="0.5">
<path d="M103.975 103.738C103.975 103.738 93.4372 97.7945 84.0786 99.9943C84.0687 99.9967 84.0588 99.999 84.0489 100.001C82.0797 100.466 80.2716 101.455 78.8076 102.852C76.8715 104.698 75.8074 106.255 74.9238 107.661C72.2379 111.938 71.7798 114.445 71.7798 114.445C70.7657 110.657 71.0056 107.231 73.2077 103.645C73.4254 103.293 73.6635 102.937 73.919 102.579C73.9778 102.496 74.0378 102.416 74.0995 102.336C74.0983 102.334 74.1001 102.332 74.1042 102.332C74.6729 101.644 75.4541 100.769 76.418 99.8546C79.3234 97.0966 83.8813 93.9811 89.2524 94.5801C99.2962 95.7001 104.608 103.513 103.975 103.738H103.975Z" fill="white"/>
</g>
<g opacity="0.5">
<path d="M103.922 123.163C101.932 122.549 100.9 120.173 101.615 117.855C102.33 115.537 104.523 114.156 106.512 114.769C108.501 115.383 109.534 117.76 108.818 120.078C108.103 122.395 105.911 123.777 103.922 123.163Z" fill="white"/>
</g>
<g opacity="0.5">
<path d="M102.494 128.38C101.654 128.197 101.146 127.255 101.359 126.276C101.573 125.297 102.427 124.652 103.266 124.835C104.106 125.019 104.614 125.96 104.401 126.939C104.187 127.918 103.334 128.563 102.494 128.38Z" fill="white"/>
</g>
<path d="M19.8518 42.0181C19.9927 43.5508 20.2261 45.0695 20.5533 46.5667C21.0085 48.6699 21.6459 50.7294 22.4521 52.7202C25.9483 61.357 32.642 68.7149 41.8015 72.8578C50.9814 77.0094 60.9518 77.1689 69.7598 74.0709C71.6941 73.3898 73.5726 72.5522 75.3731 71.5649C76.7859 70.7924 78.1492 69.9268 79.4572 68.9757C70.2377 66.6571 59.5815 62.917 48.5534 57.9295C37.5265 52.9426 27.6812 47.4107 19.8518 42.0186V42.0181Z" fill="#FFB200"/>
<path d="M48.5534 57.9299C37.5265 52.9429 27.6812 47.4111 19.8518 42.019C19.9927 43.5517 20.2261 45.0705 20.5533 46.5677C26.5787 50.9451 36.2057 56.3495 47.4166 61.4197C58.1542 66.2762 68.1636 69.8387 75.3731 71.5659C76.7859 70.7934 78.1492 69.9278 79.4572 68.9766C70.2377 66.6581 59.5815 62.918 48.5534 57.9305V57.9299Z" fill="#D66B09"/>
<path d="M21.3767 27.5041C27.4912 32.4485 39.5683 39.3698 53.9959 45.8959C68.4218 52.4202 81.5974 56.9193 89.3488 58.2448C90.1556 56.9263 90.8873 55.5432 91.5404 54.1002C91.5707 54.0321 91.6009 53.9663 91.6318 53.8964C91.9164 53.2596 92.1807 52.6193 92.4258 51.9731C93.0021 50.4649 93.4742 48.9392 93.8444 47.4059C93.8607 47.343 93.8747 47.2825 93.8892 47.2196C94.4277 44.9389 94.7461 42.6401 94.8497 40.3519C95.0517 35.9959 94.4847 31.6755 93.2256 27.5768C92.2867 24.5248 90.9647 21.5962 89.2847 18.8684C85.4888 12.7056 79.8749 7.5679 72.7819 4.36046C72.0769 4.04205 71.3685 3.74692 70.6548 3.47507C61.0983 -0.170695 50.8659 0.349712 42.0784 4.23706C42.0231 4.26209 41.9672 4.28537 41.9119 4.31215C38.0996 6.01715 34.5627 8.36248 31.4752 11.273C29.9652 12.6986 28.5611 14.2604 27.2892 15.9526C27.1495 16.1348 27.0139 16.3211 26.8777 16.5074C26.7647 16.6593 26.6559 16.8136 26.5465 16.969C25.6395 18.2607 24.8059 19.624 24.0544 21.0514C23.7733 21.5811 23.5055 22.1213 23.2494 22.6685C23.1795 22.8186 23.1097 22.9688 23.0421 23.1213C22.389 24.5632 21.8348 26.0284 21.3767 27.5041Z" fill="#FFB200"/>
<path d="M23.25 22.6695C23.1795 22.8185 23.1097 22.9687 23.041 23.1207C22.3885 24.5643 21.8337 26.0277 21.3762 27.5034C27.4901 32.4484 39.5677 39.3703 53.9954 45.8952C68.4219 52.4195 81.5968 56.9187 89.3476 58.2441C90.1538 56.9262 90.8867 55.5431 91.5398 54.0995C91.5707 54.0314 91.6004 53.965 91.6301 53.8963C84.2809 53.0843 70.8691 48.7318 56.162 42.08C40.874 35.1657 28.3743 27.6617 23.25 22.6689V22.6695Z" fill="#D66B09"/>
<path d="M94.3474 41.3325C94.5401 41.3325 94.724 41.3278 94.9004 41.3185L94.8003 39.3842C89.6375 39.6513 76.1779 35.3839 62.0751 29.0063C45.2433 21.394 34.3544 14.0658 32.2972 10.7617L30.6533 11.7857C33.2734 15.9943 45.8662 23.801 61.277 30.7712C75.3944 37.1558 88.5088 41.3325 94.3474 41.3325Z" fill="#D66B09"/>
<path d="M93.0834 28.5352L93.3681 26.6189C87.5807 25.7591 77.5597 22.3194 67.2155 17.6409C56.3754 12.7384 46.9906 7.32534 42.7232 3.51367L41.4326 4.95847C45.8369 8.8918 55.4103 14.4277 66.4169 19.4053C76.9129 24.1524 87.1302 27.6504 93.0828 28.5346L93.0834 28.5352Z" fill="#D66B09"/>
<path d="M93.8318 48.1879C93.8522 48.1879 93.8726 48.1879 93.893 48.1879L93.8831 46.2512H93.826C87.8762 46.2512 74.0214 41.7911 59.3027 35.1347C43.8104 28.1278 30.7979 20.2332 27.6585 15.936L26.0944 17.0787C29.4637 21.6908 42.4884 29.6558 58.5046 36.8996C73.4509 43.6591 87.6283 48.1885 93.8313 48.1885L93.8318 48.1879Z" fill="#D66B09"/>
<path d="M69.7248 74.5543L69.7592 74.0741L69.9408 73.6224L69.8709 73.5944L69.7941 73.5886C64.6931 73.2213 54.9805 70.0814 45.0497 65.5904C35.0647 61.0744 26.5345 56.01 22.7892 52.3735L22.1145 53.0686C25.9349 56.7778 34.5705 61.9143 44.651 66.4729C54.8315 71.0768 64.4393 74.1736 69.7248 74.5543Z" fill="#D66B09"/>
<path d="M57.2695 77.206C65.3288 77.206 73.3375 74.6948 80.0563 69.7992L81.8142 68.5186L79.7047 67.9883C70.2133 65.601 59.5863 61.8022 48.9727 57.0021C38.3596 52.202 28.4893 46.7313 20.4288 41.1803L18.6376 39.9468L18.8367 42.1122C20.1063 55.9345 28.7448 68.0715 41.3813 73.7867C46.4504 76.079 51.8716 77.2066 57.2689 77.2066L57.2695 77.206ZM77.0339 69.3981C66.6572 76.0365 53.5172 77.0384 42.2213 71.9297C30.9237 66.82 22.9994 56.2925 21.1337 44.1164C28.9288 49.3002 38.2129 54.3715 48.1332 58.8578C58.0542 63.3448 67.9937 66.9678 77.0339 69.3981Z" fill="#003158"/>
<path d="M20.8616 18.2158C20.8267 18.2931 20.8 18.374 20.7808 18.4583L20.8616 18.2158Z" fill="#D66B09"/>
<path d="M1.41518 19.1842C-0.853893 24.2014 6.62683 32.9115 19.8512 42.0187C27.6812 47.4108 37.5265 52.9426 48.5528 57.9295C59.5809 62.917 70.2365 66.6571 79.4566 68.9757C95.0286 72.8921 106.508 72.7571 108.778 67.7398C110.838 63.1831 104.86 55.5842 93.844 47.4055C93.4727 48.9394 93.0011 50.4645 92.4249 51.9734C95.4705 54.4636 96.97 56.4399 96.449 57.5913C95.9187 58.7643 93.3597 58.929 89.3484 58.2439C81.5976 56.9184 68.4226 52.4192 53.9962 45.8949C39.5685 39.37 27.4903 32.4482 21.3769 27.5031C18.2149 24.9442 16.6484 22.9137 17.1793 21.7408C17.6997 20.5905 20.1743 20.4101 24.0541 21.0522C24.8062 19.6231 25.6403 18.2615 26.5467 16.9698C13.1308 14.0988 3.47644 14.628 1.41518 19.1842Z" fill="#FFCC4D"/>
<path d="M94.6776 62.2626C97.5695 62.2626 99.7746 61.6624 100.501 60.0558C101.54 57.7588 99.1703 54.2969 93.4586 49.7669L92.5558 50.905C99.7193 56.5864 99.4352 58.8875 99.1773 59.4574C98.2826 61.4348 91.2629 61.5803 77.5984 57.4491C70.0816 55.1742 61.5822 51.9248 53.0205 48.052C44.4582 44.1798 36.4059 39.9438 29.7349 35.8021C17.6072 28.269 13.0807 22.9019 13.9748 20.9239C14.2327 20.354 15.7718 18.6211 24.77 20.2486L25.0285 18.819C17.8545 17.5209 13.6901 18.0279 12.6511 20.3255C10.6305 24.792 22.0067 32.7128 28.9682 37.0362C35.6928 41.2111 43.8022 45.4779 52.4215 49.3758C61.0403 53.2736 69.6008 56.5462 77.1776 58.8392C82.2 60.3579 89.5271 62.262 94.677 62.2626H94.6776Z" fill="#FFEC90"/>
<path d="M96.7774 67.3323C100.865 67.3323 104.213 66.5028 105.305 64.0882C107.329 59.6135 100.233 52.9716 93.925 48.1878L93.0472 49.345C101.127 55.4735 105.215 60.7608 103.982 63.4897C103.25 65.1074 100.502 65.9562 96.2226 65.8863C91.7811 65.8112 85.7615 64.7622 78.814 62.8529C70.2534 60.5006 60.6259 56.9497 50.9716 52.5833C41.3184 48.2175 32.2939 43.333 24.8743 38.4584C18.8524 34.5023 14.089 30.6744 11.0992 27.3889C8.22418 24.2286 7.04309 21.5975 7.7748 19.9798C9.00888 17.2514 15.6787 16.8288 25.6171 18.8499L25.9064 17.4267C18.1475 15.8486 8.47392 14.9073 6.45108 19.3814C3.70934 25.4435 17.8634 35.5909 24.0769 39.6726C31.5582 44.588 40.6513 49.5103 50.3726 53.907C60.095 58.3037 69.7965 61.882 78.4286 64.2535C82.7409 65.4387 90.6023 67.3329 96.7768 67.3329L96.7774 67.3323Z" fill="#FFEC90"/>
<path d="M97.8196 72.7451C104.196 72.7451 108.328 71.2066 109.706 68.1598C112.725 61.4859 101.444 51.7798 94.4515 46.5879L93.2163 45.6711L92.8542 47.1665C92.4898 48.6701 92.0253 50.1656 91.4729 51.6104L91.2103 52.2973L91.7796 52.763C95.7863 56.0397 95.525 57.1631 95.5203 57.173C95.5162 57.1829 94.8241 58.1469 89.5193 57.2411C81.6171 55.8895 68.1663 51.1872 54.4156 44.9679C40.6644 38.7492 28.2503 31.754 22.017 26.7123C17.8357 23.3279 18.1018 22.1718 18.1064 22.1619C18.1111 22.152 18.7828 21.2143 23.8868 22.0583L24.6121 22.1782L24.9544 21.5274C25.6756 20.1571 26.4911 18.8212 27.3795 17.5557L28.2637 16.296L26.7589 15.9741C18.2426 14.1515 3.50472 12.0908 0.486473 18.7647C-1.9584 24.1708 4.88898 32.9525 19.273 42.8583C27.4318 48.4769 37.4116 54.0093 48.1329 58.8583C58.8554 63.7078 69.6012 67.548 79.2078 69.9644C86.5988 71.823 92.8816 72.7457 97.8191 72.7457L97.8196 72.7451ZM94.4428 49.1323C104.389 56.7469 109.506 63.6572 107.849 67.3198C105.909 71.61 95.125 71.8655 79.7049 67.9875C70.2136 65.6003 59.5865 61.8014 48.9729 57.0013C38.3598 52.2012 28.4895 46.7305 20.429 41.1795C7.33326 32.1609 0.403221 23.8937 2.34341 19.6041C3.99951 15.9409 12.5682 15.2208 24.8542 17.6605C24.3769 18.4021 23.9234 19.1623 23.4979 19.9342C19.2654 19.316 16.955 19.7619 16.25 21.3208C15.495 22.9909 16.9201 25.207 20.7352 28.2945C27.1903 33.5154 39.4676 40.442 53.5757 46.8225C67.6837 53.203 80.9925 57.8477 89.1759 59.2477C94.0155 60.0743 96.6211 59.6814 97.3761 58.0107C98.081 56.4512 96.8894 54.422 93.6296 51.6517C93.9282 50.8228 94.1995 49.9805 94.4416 49.1317L94.4428 49.1323Z" fill="#003158"/>
<g opacity="0.41">
<path d="M21.3759 27.5028C22.0872 28.0786 22.8783 28.6793 23.7468 29.3056C24.0973 28.3172 24.4931 27.3335 24.9314 26.3619C25.0007 26.2106 25.0705 26.0615 25.1404 25.9119C25.3954 25.3618 25.6637 24.8228 25.9437 24.2937C26.6958 22.8646 27.5311 21.5024 28.4357 20.2107C28.5446 20.0553 28.6558 19.9022 28.767 19.7491C30.1477 17.8439 31.6903 16.094 33.3662 14.5153C36.4974 11.5617 40.0908 9.19078 43.9671 7.47937C53.4101 3.3033 64.5232 3.01224 74.6711 7.60219C81.4452 10.6664 86.871 15.4898 90.6518 21.2894C86.9007 14.0537 80.7821 7.97998 72.7781 4.35983C62.6307 -0.228375 51.5171 0.0603524 42.0764 4.23642C38.2001 5.95016 34.6044 8.31819 31.4732 11.2747C29.7996 12.8534 28.2564 14.6009 26.8763 16.5062C26.7627 16.6593 26.6539 16.8147 26.545 16.9701C25.6375 18.2624 24.8045 19.6222 24.0524 21.0507C23.7719 21.5822 23.5041 22.1212 23.2485 22.669C23.1763 22.8186 23.1071 22.9676 23.0401 23.1213C22.3876 24.5638 21.8328 26.0278 21.3753 27.5028H21.3759Z" fill="white"/>
</g>
<path d="M89.8571 59.3648L90.2174 58.7757C91.0475 57.4182 91.8054 55.9862 92.4685 54.5193C92.7939 53.7998 93.0995 53.0652 93.3771 52.3352C93.9592 50.8113 94.45 49.2332 94.8342 47.6452C99.1825 29.662 90.0835 11.0676 73.2 3.43202C56.3164 -4.20412 36.3447 1.24328 25.7125 16.384C24.7747 17.72 23.9132 19.1304 23.1517 20.5775C22.7885 21.2644 22.4387 21.9793 22.1127 22.7005C21.4485 24.1692 20.8734 25.6838 20.403 27.202L20.1987 27.8615L20.7354 28.2958C27.1904 33.5167 39.4672 40.4433 53.5758 46.8238C67.6839 53.2043 80.9927 57.849 89.176 59.249L89.8565 59.3654L89.8571 59.3648ZM57.3054 2.03786C62.3744 2.03786 67.5017 3.09149 72.3611 5.28896C88.3541 12.5217 96.9728 30.1341 92.8544 47.1667C92.4906 48.6703 92.0261 50.1651 91.4736 51.6099C91.2105 52.3021 90.9206 52.9983 90.6127 53.6799C90.08 54.8575 89.484 56.0107 88.8361 57.1173C80.8565 55.6213 67.7776 51.0098 54.4164 44.9669C41.0546 38.924 28.9554 32.1482 22.5621 27.1438C22.9649 25.9277 23.437 24.7187 23.9702 23.5399C24.2793 22.8571 24.6105 22.1801 24.9551 21.5276C25.6769 20.1555 26.4931 18.8196 27.3808 17.5546C34.3918 7.57142 45.6917 2.03728 57.306 2.03728L57.3054 2.03786Z" fill="#003158"/>
<g opacity="0.25">
<path d="M49.2318 58.2354C60.0195 63.0721 70.4277 66.7039 79.4574 68.9759C95.0289 72.8918 106.51 72.7567 108.779 67.7401C110.838 63.1827 104.86 55.585 93.8455 47.4058C93.4729 48.9408 93.0008 50.4665 92.4251 51.9742C95.4713 54.4639 96.9714 56.439 96.4498 57.591C95.9184 58.7651 93.3594 58.9298 89.3498 58.2447C84.208 57.3651 76.679 55.0879 67.9776 51.7501C68.1871 52.8834 68.0952 53.9173 67.6836 54.8277C65.9844 58.587 59.1155 59.6062 49.2318 58.2354Z" fill="#003158"/>
</g>
<g opacity="0.3">
<path d="M87.549 16.2975C87.4077 16.1045 87.2647 15.9115 87.1147 15.7202C87.2629 15.9115 87.4077 16.1028 87.549 16.2975Z" fill="#293856"/>
</g>
<g opacity="0.3">
<path d="M86.6033 15.0674C86.2726 14.6523 85.9303 14.2442 85.5782 13.8438C85.9286 14.2442 86.2703 14.6523 86.6033 15.0674Z" fill="#293856"/>
</g>
<g opacity="0.3">
<path d="M83.3659 11.5215C83.7327 11.876 84.0924 12.2352 84.4428 12.6019C84.0924 12.2334 83.7327 11.8737 83.3659 11.5215Z" fill="#293856"/>
</g>
<g opacity="0.3">
<path d="M82.7797 10.9693C82.3844 10.6044 81.9799 10.2464 81.5666 9.89941C81.9799 10.2481 82.3838 10.6061 82.7797 10.9693Z" fill="#293856"/>
</g>
<g opacity="0.25">
<path d="M19.8518 42.0181C19.9927 43.5508 20.2261 45.0695 20.5533 46.5667C21.0085 48.6699 21.6459 50.7294 22.4521 52.7202C25.9483 61.357 32.642 68.7149 41.8015 72.8578C50.9814 77.0094 60.9518 77.1689 69.7598 74.0709C71.6941 73.3898 73.5726 72.5522 75.3731 71.5649C76.7859 70.7924 78.1492 69.9268 79.4572 68.9757C70.2377 66.6571 59.5815 62.917 48.5534 57.9295C37.5265 52.9426 27.6812 47.4107 19.8518 42.0186V42.0181Z" fill="#003158"/>
</g>
<g opacity="0.25">
<path d="M21.3752 27.5051C27.4903 32.4478 39.5685 39.3697 53.9961 45.8952C68.4215 52.4206 81.597 56.9204 89.3484 58.2452C90.1552 56.9273 90.8863 55.5443 91.5383 54.0994C91.5685 54.0313 91.5994 53.9656 91.6297 53.8957C91.9155 53.26 92.1809 52.618 92.4248 51.973C93.0017 50.4653 93.4732 48.939 93.8434 47.4052C93.8597 47.3417 93.8737 47.2835 93.8883 47.22C94.4273 44.9388 94.7463 42.6406 94.8499 40.3523C95.0513 35.9958 94.4843 31.6765 93.2252 27.5779C92.2875 24.5247 90.9649 21.5961 89.2838 18.8695C87.1922 15.4717 84.5471 12.3859 81.4055 9.76465C82.313 10.9114 83.15 12.1071 83.912 13.3452C85.5908 16.0724 86.9134 19.001 87.8512 22.0536C89.1103 26.1523 89.6778 30.4715 89.4759 34.8281C89.3728 37.1163 89.0538 39.4145 88.5142 41.6958C88.5002 41.7593 88.4863 41.8204 88.4694 41.8809C88.4618 41.9129 88.4531 41.9473 88.4432 41.9845C86.7859 48.4064 80.048 52.0882 73.7158 50.1178C66.5965 47.9023 57.8654 44.5522 48.6215 40.3709C37.899 35.5196 28.4729 30.4523 21.8298 26.1383C21.668 26.5929 21.5178 27.0481 21.3752 27.5051Z" fill="#003158"/>
</g>
</svg>
